{"glyphs":{"0":{"ha":833,"x_min":75,"x_max":675,"o":"m 375 832 q 275 781 317 832 q 215 646 234 730 q 195 455 195 562 q 239 191 195 292 l 458 800 q 375 832 422 832 m 485 10 q 460 -2 485 10 q 375 -15 435 -15 q 265 10 315 -15 q 180 79 215 35 q 121 182 145 122 q 86 311 98 242 q 75 456 75 379 q 84 593 75 528 q 116 720 94 659 q 171 826 138 782 q 257 898 205 871 q 375 925 309 925 q 493 898 441 925 q 579 826 545 871 q 634 720 612 782 q 666 593 656 659 q 675 456 675 528 q 664 311 675 379 q 629 182 652 242 q 570 79 605 122 q 485 10 535 35 m 513 714 l 298 107 q 375 79 331 79 q 474 130 433 79 q 536 264 516 180 q 555 455 555 348 q 513 714 555 610 z "},"1":{"ha":833,"x_min":144,"x_max":656,"o":"m 656 0 l 145 0 l 145 89 l 351 89 l 351 787 q 289 751 332 777 q 211 706 245 724 q 144 675 176 687 l 144 785 q 184 804 164 793 q 218 822 204 814 q 253 844 231 829 q 284 864 275 859 q 318 888 292 870 q 350 911 344 907 l 465 911 l 465 89 l 656 89 l 656 0 z "},"2":{"ha":833,"x_min":118,"x_max":608,"o":"m 118 852 q 215 907 164 890 q 338 925 267 925 q 536 854 466 925 q 606 664 606 783 q 604 619 606 641 q 593 574 601 597 q 581 535 586 552 q 562 495 575 518 q 542 461 548 473 q 518 426 535 449 q 496 395 501 402 q 472 364 491 388 q 450 337 453 340 l 256 89 l 608 89 l 608 0 l 124 0 l 124 92 l 384 441 q 420 491 410 477 q 450 539 430 506 q 477 601 469 572 q 486 661 486 631 q 448 778 486 736 q 339 819 410 819 q 241 803 280 819 q 158 756 201 787 l 118 852 z "},"3":{"ha":833,"x_min":98,"x_max":684,"o":"m 352 96 q 494 139 441 96 q 547 264 547 182 q 526 343 547 309 q 469 395 505 376 q 390 421 433 413 q 295 430 347 430 l 228 430 l 228 539 l 295 540 q 381 547 345 541 q 450 570 418 554 q 498 615 481 585 q 515 688 515 645 q 473 788 515 753 q 350 823 430 823 q 142 745 229 823 l 100 844 q 364 925 197 925 q 570 864 490 925 q 650 698 650 802 q 633 617 650 653 q 588 556 617 581 q 526 516 559 532 q 451 490 492 500 q 536 465 496 482 q 610 419 576 447 q 664 348 644 391 q 684 252 684 304 q 657 134 684 185 q 584 53 631 83 q 477 7 537 22 q 346 -7 418 -7 q 209 14 273 -7 q 98 69 144 35 l 141 167 q 232 117 173 139 q 352 96 290 96 z "},"4":{"ha":833,"x_min":37,"x_max":695,"o":"m 547 0 l 433 0 l 433 243 l 37 243 l 37 330 l 407 911 l 547 911 l 547 328 l 695 328 l 695 243 l 547 243 l 547 0 m 433 783 l 153 328 l 433 328 l 433 783 z "},"5":{"ha":833,"x_min":127,"x_max":653,"o":"m 160 156 q 360 83 269 83 q 485 139 439 83 q 530 302 530 195 q 399 494 530 494 q 333 480 367 494 q 282 453 300 467 l 265 439 l 161 457 l 161 911 l 602 911 l 602 821 l 276 821 l 276 549 q 295 562 283 555 q 343 583 307 570 q 412 595 378 595 q 505 579 463 595 q 574 535 547 563 q 619 470 601 508 q 645 390 637 432 q 653 302 653 349 q 568 75 653 161 q 355 -12 482 -12 q 127 62 238 -12 l 160 156 z "},"6":{"ha":833,"x_min":94,"x_max":680,"o":"m 391 -16 q 173 66 252 -16 q 94 288 94 148 q 194 572 94 450 l 471 911 l 619 911 l 290 520 q 350 546 314 536 q 421 556 387 556 q 610 476 539 556 q 680 274 680 397 q 656 152 680 208 q 591 60 632 96 q 499 4 551 24 q 391 -16 447 -16 m 389 79 q 515 134 467 79 q 563 271 563 189 q 518 410 563 354 q 397 467 473 467 q 262 410 310 467 q 215 267 215 353 q 263 132 215 185 q 389 79 311 79 z "},"7":{"ha":833,"x_min":87,"x_max":627,"o":"m 87 808 l 87 911 l 627 911 l 627 822 l 369 0 l 227 0 l 482 808 l 87 808 z "},"8":{"ha":833,"x_min":111,"x_max":653,"o":"m 241 231 q 278 119 241 159 q 382 79 314 79 q 486 119 450 79 q 523 231 523 159 q 382 414 523 372 q 241 231 241 371 m 653 248 q 581 54 653 123 q 382 -15 508 -15 q 183 54 256 -15 q 111 248 111 123 q 164 393 111 335 q 300 475 218 450 q 129 697 129 535 q 200 864 129 803 q 382 925 271 925 q 564 864 492 925 q 636 697 636 803 q 465 475 636 535 q 600 393 546 450 q 653 248 653 335 m 518 702 q 480 797 518 761 q 382 832 441 832 q 285 797 323 832 q 247 702 247 761 q 282 591 247 630 q 382 534 317 551 q 483 591 447 551 q 518 702 518 630 z "},"9":{"ha":833,"x_min":118,"x_max":704,"o":"m 406 926 q 625 847 546 926 q 704 628 704 768 q 604 356 704 485 l 329 0 l 181 0 l 507 408 q 447 382 483 393 q 376 372 410 372 q 188 447 257 372 q 118 642 118 521 q 159 796 118 730 q 265 894 201 862 q 406 926 329 926 m 582 650 q 534 781 582 730 q 407 832 486 832 q 282 779 330 832 q 234 644 234 726 q 278 510 234 562 q 400 458 323 458 q 535 511 488 458 q 582 650 582 565 z "},"\u0000":{"ha":833,"x_min":0,"x_max":0,"o":""}," ":{"ha":833,"x_min":0,"x_max":0,"o":""},"!":{"ha":833,"x_min":302,"x_max":448,"o":"m 356 298 l 302 911 l 448 911 l 394 298 l 356 298 m 448 0 l 302 0 l 302 168 l 448 168 l 448 0 z "},"\"":{"ha":833,"x_min":179,"x_max":571,"o":"m 315 967 l 283 531 l 210 531 l 179 967 l 315 967 m 571 967 l 540 531 l 467 531 l 438 967 l 571 967 z "},"#":{"ha":833,"x_min":50,"x_max":700,"o":"m 690 608 l 577 608 l 525 350 l 640 350 l 630 267 l 511 267 l 456 -15 l 357 -15 l 410 267 l 279 267 l 224 -15 l 125 -15 l 182 267 l 50 267 l 58 350 l 198 350 l 247 608 l 110 608 l 118 690 l 262 690 l 315 957 l 414 957 l 362 690 l 495 690 l 547 957 l 646 957 l 593 690 l 700 690 l 690 608 m 346 608 l 295 350 l 428 350 l 479 608 l 346 608 z "},"$":{"ha":833,"x_min":86,"x_max":644,"o":"m 406 394 l 406 84 q 487 140 458 97 q 515 247 515 182 q 486 335 515 300 q 406 394 457 369 m 350 541 l 350 831 q 253 785 288 823 q 218 684 218 747 q 254 598 218 631 q 350 541 290 565 m 350 419 q 210 484 248 459 q 94 650 107 545 q 92 686 92 667 q 163 857 92 795 q 350 925 235 920 l 350 1069 l 406 1069 l 406 925 q 608 858 530 918 l 566 770 q 406 831 501 822 l 406 519 q 475 489 446 503 q 538 451 505 475 q 594 401 572 427 q 629 337 615 375 q 644 254 644 299 q 581 67 644 135 q 406 -13 517 -1 l 406 -133 l 350 -133 l 350 -15 q 86 58 193 -13 l 130 159 q 350 79 222 83 l 350 419 z "},"%":{"ha":833,"x_min":40,"x_max":710,"o":"m 552 334 q 468 195 468 334 q 486 95 468 132 q 551 58 503 58 q 634 197 634 58 q 616 297 634 260 q 552 334 599 334 m 553 404 q 673 348 635 404 q 710 197 710 292 q 668 44 710 100 q 549 -12 625 -12 q 429 45 467 -12 q 391 195 391 101 q 430 347 391 290 q 553 404 470 404 m 203 959 q 322 903 286 959 q 359 752 359 848 q 317 599 359 655 q 198 543 275 543 q 78 600 116 543 q 40 749 40 656 q 80 902 40 844 q 203 959 120 959 m 686 621 l 123 283 l 85 346 l 650 686 l 686 621 m 201 889 q 136 851 154 889 q 118 749 118 812 q 121 697 118 720 q 133 655 124 675 q 158 624 141 635 q 201 613 176 613 q 283 752 283 613 q 266 852 283 814 q 201 889 248 889 z "},"&":{"ha":833,"x_min":41,"x_max":731,"o":"m 211 538 q 198 553 206 543 q 170 591 190 562 q 134 648 149 620 q 106 712 119 675 q 93 779 93 749 q 156 923 93 872 q 315 973 219 973 q 479 921 414 973 q 544 775 544 869 q 528 685 544 727 q 481 611 511 643 q 420 556 451 578 q 351 511 390 534 l 557 229 q 634 382 596 275 l 731 347 q 620 144 663 188 l 694 46 l 615 -15 l 552 74 q 451 10 511 35 q 324 -15 390 -15 q 117 55 193 -15 q 41 252 41 124 q 211 538 41 425 m 338 87 q 421 106 386 87 q 491 158 457 124 l 274 455 q 169 256 169 376 q 214 132 169 176 q 338 87 258 87 m 420 769 q 393 850 420 819 q 323 882 366 882 q 245 854 277 882 q 213 787 213 827 q 302 587 213 707 q 390 661 359 618 q 420 769 420 703 z "},"'":{"ha":833,"x_min":296,"x_max":454,"o":"m 334 591 l 296 964 l 454 964 l 420 591 l 334 591 z "},"(":{"ha":833,"x_min":234,"x_max":527,"o":"m 234 471 q 418 1040 234 785 l 526 1040 q 352 477 352 766 q 398 177 352 314 q 527 -93 444 40 l 420 -93 q 234 471 234 155 z "},")":{"ha":833,"x_min":204,"x_max":498,"o":"m 498 471 q 311 -93 498 156 l 204 -93 q 333 177 288 40 q 378 477 378 313 q 205 1040 378 766 l 313 1040 q 498 471 498 785 z "},"*":{"ha":833,"x_min":34,"x_max":716,"o":"m 638 229 l 528 165 l 374 411 l 222 165 l 111 229 l 304 459 l 34 549 l 90 659 l 336 528 l 315 812 l 434 812 l 416 528 l 659 659 l 716 549 l 444 459 l 638 229 z "},"+":{"ha":833,"x_min":22,"x_max":729,"o":"m 327 785 l 425 785 l 425 505 l 729 505 l 729 412 l 425 412 l 425 132 l 324 132 l 324 412 l 22 412 l 22 505 l 327 505 l 327 785 z "},",":{"ha":833,"x_min":280,"x_max":456,"o":"m 280 -196 l 311 174 l 456 174 l 343 -196 l 280 -196 z "},"-":{"ha":833,"x_min":151,"x_max":600,"o":"m 600 431 l 600 336 l 151 336 l 151 431 l 600 431 z "},".":{"ha":833,"x_min":283,"x_max":467,"o":"m 467 0 l 283 0 l 283 184 l 467 184 l 467 0 z "},"/":{"ha":833,"x_min":100,"x_max":650,"o":"m 530 967 l 650 967 l 217 -137 l 100 -137 l 530 967 z "},":":{"ha":833,"x_min":300,"x_max":469,"o":"m 469 513 l 300 513 l 300 684 l 469 684 l 469 513 m 469 95 l 300 95 l 300 266 l 469 266 l 469 95 z "},";":{"ha":833,"x_min":250,"x_max":475,"o":"m 250 -191 l 296 174 l 463 174 l 360 -191 l 250 -191 m 475 511 l 292 511 l 292 695 l 475 695 l 475 511 z "},"<":{"ha":833,"x_min":93,"x_max":719,"o":"m 717 224 l 717 116 l 93 420 l 93 492 l 719 806 l 719 697 l 241 457 l 717 224 z "},"=":{"ha":833,"x_min":83,"x_max":669,"o":"m 668 548 l 83 548 l 83 640 l 668 640 l 668 548 m 669 279 l 83 279 l 83 369 l 669 369 l 669 279 z "},">":{"ha":833,"x_min":93,"x_max":719,"o":"m 96 705 l 96 806 l 719 485 l 719 427 l 93 130 l 93 232 l 570 460 l 96 705 z "},"?":{"ha":833,"x_min":102,"x_max":585,"o":"m 585 751 q 571 678 585 713 q 533 614 556 643 q 481 559 509 586 q 424 507 452 532 q 372 455 395 481 q 334 400 349 430 q 319 339 319 370 q 328 244 319 287 l 220 244 q 213 347 213 300 l 212 348 q 227 425 212 389 q 264 485 241 460 q 314 534 287 511 q 370 580 342 557 q 420 627 397 603 q 458 684 444 652 q 472 754 472 716 q 273 886 472 886 q 102 840 186 886 l 102 937 q 273 980 193 980 q 371 972 326 980 q 456 948 416 965 q 524 905 496 931 q 569 840 553 880 q 585 751 585 801 m 200 -7 l 200 132 l 348 132 l 348 -7 l 200 -7 z "},"@":{"ha":833,"x_min":49,"x_max":755,"o":"m 562 319 q 575 263 562 290 q 610 235 589 235 q 661 300 640 235 q 690 433 682 364 q 698 552 698 501 q 669 717 698 644 q 581 834 640 790 q 442 879 522 879 q 298 840 361 879 q 196 732 235 800 q 138 577 157 664 q 118 391 118 491 q 152 193 118 280 q 256 53 186 106 q 422 1 326 1 q 681 106 560 1 l 710 71 q 416 -54 581 -54 q 298 -35 353 -54 q 204 17 243 -16 q 135 93 165 50 q 86 186 104 136 q 58 289 67 237 q 49 393 49 340 q 100 668 49 545 q 238 858 151 790 q 431 925 325 925 q 552 905 497 925 q 644 852 606 886 q 706 771 681 818 q 743 670 732 724 q 755 555 755 616 q 747 434 755 494 q 723 315 739 373 q 675 222 706 258 q 604 186 644 186 q 533 220 558 186 q 502 308 507 254 q 444 211 482 241 q 368 180 405 180 q 302 199 330 180 q 259 249 275 217 q 237 317 244 280 q 230 397 230 354 q 252 536 230 469 q 316 646 274 603 q 408 690 357 690 q 472 661 446 690 q 514 592 498 633 l 527 669 l 597 669 q 588 610 596 669 q 571 463 579 551 q 562 319 562 376 m 496 455 q 414 628 496 628 q 359 601 383 628 q 324 532 336 574 q 307 452 312 491 q 301 378 301 413 q 383 241 301 241 q 434 263 411 241 q 470 321 457 286 q 490 390 483 355 q 496 455 496 425 z "},"A":{"ha":833,"x_min":92,"x_max":742,"o":"m 481 910 l 742 0 l 625 0 l 540 301 l 293 301 l 208 0 l 92 0 l 351 910 l 481 910 m 317 381 l 515 381 l 418 795 l 317 381 z "},"B":{"ha":833,"x_min":127,"x_max":711,"o":"m 711 272 q 347 8 711 8 l 127 8 l 127 918 l 315 918 q 424 913 376 918 q 519 894 472 909 q 596 856 566 880 q 645 791 626 831 q 663 694 663 750 q 500 503 663 547 q 651 426 591 490 q 711 272 711 363 m 359 450 l 241 450 l 241 97 l 347 97 q 534 136 477 97 q 590 278 590 174 q 531 411 590 373 q 359 450 472 450 m 332 543 q 413 548 378 543 q 480 568 449 554 q 527 609 511 582 q 544 673 544 635 q 539 734 544 709 q 520 777 534 760 q 489 805 506 795 q 441 820 472 814 q 378 827 410 825 q 296 829 347 829 l 241 829 l 241 543 l 332 543 z "},"C":{"ha":833,"x_min":121,"x_max":710,"o":"m 710 837 l 649 769 q 576 816 614 800 q 488 832 538 832 q 353 779 410 832 q 268 642 296 726 q 241 456 241 558 q 269 266 241 351 q 352 131 296 182 q 481 79 407 79 q 650 145 577 79 l 710 74 q 473 -15 618 -15 q 291 46 372 -15 q 165 215 210 107 q 121 458 121 323 q 148 651 121 563 q 224 799 176 739 q 339 892 272 859 q 483 925 406 925 q 710 837 625 925 z "},"D":{"ha":833,"x_min":159,"x_max":730,"o":"m 159 910 l 294 910 q 620 787 510 910 q 730 442 730 663 q 622 111 730 221 q 286 0 513 0 l 159 0 l 159 910 m 284 89 q 444 111 380 89 q 545 179 508 133 q 596 289 581 226 q 611 442 611 351 q 602 570 611 515 q 571 674 593 626 q 513 754 549 723 q 419 803 476 785 q 285 821 362 821 l 273 821 l 273 89 l 284 89 z "},"E":{"ha":833,"x_min":179,"x_max":707,"o":"m 294 418 l 294 89 l 707 89 l 698 0 l 179 0 l 179 910 l 686 910 l 677 821 l 294 821 l 294 515 l 656 515 l 656 418 l 294 418 z "},"F":{"ha":833,"x_min":186,"x_max":695,"o":"m 300 417 l 300 0 l 186 0 l 186 910 l 695 910 l 684 821 l 300 821 l 300 516 l 669 516 l 669 417 l 300 417 z "},"G":{"ha":833,"x_min":92,"x_max":703,"o":"m 648 766 q 476 832 578 832 q 335 778 397 832 q 242 638 273 723 q 212 456 212 553 q 226 313 212 380 q 269 194 240 247 q 345 110 297 140 q 453 79 392 79 q 597 116 551 79 l 597 381 l 420 381 l 420 475 l 703 475 l 703 73 q 587 8 648 32 q 442 -15 526 -15 q 287 22 355 -15 q 177 125 219 60 q 114 275 136 191 q 92 458 92 359 q 122 650 92 562 q 204 798 153 738 q 323 891 255 858 q 468 925 392 925 q 592 907 541 925 q 688 850 644 889 l 648 766 z "},"H":{"ha":833,"x_min":127,"x_max":706,"o":"m 241 0 l 127 0 l 127 910 l 241 910 l 241 522 l 592 522 l 592 910 l 706 910 l 706 0 l 592 0 l 592 429 l 241 429 l 241 0 z "},"I":{"ha":833,"x_min":160,"x_max":673,"o":"m 160 821 l 160 910 l 673 910 l 673 821 l 471 821 l 471 89 l 673 89 l 673 0 l 160 0 l 160 89 l 357 89 l 357 821 l 160 821 z "},"J":{"ha":833,"x_min":137,"x_max":598,"o":"m 138 0 l 137 92 q 193 87 155 91 q 256 82 230 84 q 305 81 283 81 q 355 84 334 81 q 398 94 377 87 q 434 115 419 102 q 460 149 449 129 q 478 198 472 169 q 484 264 484 227 l 484 821 l 222 821 l 222 910 l 598 910 l 598 271 q 585 152 598 202 q 547 72 571 102 q 486 22 524 41 q 408 -3 449 4 q 311 -9 366 -9 q 138 0 262 -9 z "},"K":{"ha":833,"x_min":159,"x_max":758,"o":"m 595 910 l 738 910 l 433 503 l 758 0 l 613 0 l 345 427 l 273 342 l 273 0 l 159 0 l 159 910 l 273 910 l 273 472 l 595 910 z "},"L":{"ha":833,"x_min":220,"x_max":686,"o":"m 334 89 l 686 89 l 680 0 l 220 0 l 220 910 l 334 910 l 334 89 z "},"M":{"ha":833,"x_min":133,"x_max":701,"o":"m 246 781 l 246 0 l 133 0 l 133 910 l 288 910 l 418 484 l 549 910 l 701 910 l 701 0 l 590 0 l 590 781 l 482 388 l 355 388 l 246 781 z "},"N":{"ha":833,"x_min":134,"x_max":700,"o":"m 700 0 l 566 0 l 237 736 l 237 0 l 134 0 l 134 910 l 264 910 l 598 176 l 598 910 l 700 910 l 700 0 z "},"O":{"ha":833,"x_min":117,"x_max":716,"o":"m 417 -15 q 307 10 357 -15 q 222 79 257 35 q 163 182 187 122 q 129 311 140 242 q 117 456 117 379 q 126 593 117 528 q 158 720 136 659 q 213 826 180 782 q 299 898 247 871 q 417 925 351 925 q 535 898 483 925 q 621 826 587 871 q 676 720 654 782 q 707 593 698 659 q 716 456 716 528 q 698 276 716 359 q 645 127 680 193 q 551 23 609 61 q 417 -15 492 -15 m 517 781 q 496 807 517 781 q 417 832 475 832 q 317 781 359 832 q 256 646 276 730 q 237 455 237 562 q 256 264 237 348 q 318 130 276 180 q 417 79 359 79 q 516 130 475 79 q 577 264 557 180 q 597 455 597 348 q 577 646 597 562 q 517 781 558 730 z "},"P":{"ha":833,"x_min":170,"x_max":720,"o":"m 720 648 q 702 536 720 585 q 655 457 685 488 q 582 409 626 427 q 488 383 537 390 q 378 376 439 376 l 284 376 l 284 0 l 170 0 l 170 910 l 379 910 q 487 902 438 910 q 580 875 536 894 q 654 826 624 856 q 702 751 684 797 q 720 648 720 706 m 284 467 l 418 467 q 557 512 505 467 q 609 643 609 557 q 557 777 609 733 q 418 821 505 821 l 284 821 l 284 467 z "},"Q":{"ha":833,"x_min":117,"x_max":716,"o":"m 417 -15 q 307 10 357 -15 q 222 79 257 35 q 163 182 187 122 q 129 311 140 242 q 117 456 117 379 q 126 593 117 528 q 158 720 136 659 q 213 826 180 782 q 299 898 247 871 q 417 925 351 925 q 535 898 483 925 q 621 826 587 871 q 676 720 654 782 q 707 593 698 659 q 716 456 716 528 q 670 180 716 300 q 532 12 623 60 q 701 -201 589 -102 l 625 -279 q 425 -15 496 -156 l 417 -15 m 517 781 q 496 807 517 781 q 417 832 475 832 q 317 781 359 832 q 256 646 276 730 q 237 455 237 562 q 256 264 237 348 q 318 130 276 180 q 417 79 359 79 q 516 130 475 79 q 577 264 557 180 q 597 455 597 348 q 577 646 597 562 q 517 781 558 730 z "},"R":{"ha":833,"x_min":145,"x_max":745,"o":"m 723 667 q 653 855 723 800 q 418 910 583 910 l 145 910 l 145 0 l 260 0 l 260 425 l 479 427 l 625 0 l 745 0 l 584 452 q 685 526 648 476 q 723 667 723 575 m 446 510 l 260 510 l 260 821 l 416 821 q 571 789 530 821 q 612 670 612 757 q 570 545 612 579 q 446 510 528 510 z "},"S":{"ha":833,"x_min":136,"x_max":698,"o":"m 195 152 q 295 99 245 119 q 408 79 345 79 q 526 123 482 79 q 569 243 569 168 q 564 285 569 266 q 552 319 559 304 q 531 346 545 333 q 505 368 517 359 q 472 388 492 377 q 437 404 451 398 q 397 421 422 410 q 357 438 372 431 q 305 463 325 453 q 257 490 285 473 q 212 524 229 507 q 178 565 195 541 q 154 619 161 589 q 146 686 146 650 q 225 862 146 799 q 427 926 304 926 q 667 852 573 926 l 612 778 q 531 817 579 802 q 433 833 483 833 q 315 796 359 833 q 272 688 272 759 q 277 650 272 667 q 295 617 283 632 q 320 592 308 603 q 355 570 333 581 q 394 550 377 558 q 439 530 411 543 q 485 509 467 517 q 530 486 513 495 q 572 462 547 477 q 612 434 597 447 q 646 401 628 420 q 674 360 664 381 q 691 312 684 340 q 698 254 698 285 q 622 54 698 122 q 414 -15 546 -15 q 136 69 262 -15 l 195 152 z "},"T":{"ha":833,"x_min":101,"x_max":732,"o":"m 732 910 l 732 821 l 473 821 l 473 0 l 359 0 l 359 821 l 101 821 l 101 910 l 732 910 z "},"U":{"ha":833,"x_min":121,"x_max":713,"o":"m 643 59 q 608 22 643 59 q 417 -15 574 -15 q 191 59 260 -15 q 121 296 121 132 l 121 910 l 235 910 l 235 299 q 273 132 235 184 q 417 79 312 79 q 561 132 522 79 q 599 299 599 184 l 599 910 l 713 910 l 713 296 q 643 59 713 132 z "},"V":{"ha":833,"x_min":76,"x_max":758,"o":"m 632 910 l 757 910 l 483 0 l 350 0 l 76 910 l 202 910 l 418 136 l 632 910 z "},"W":{"ha":833,"x_min":96,"x_max":737,"o":"m 572 117 l 630 910 l 737 910 l 654 0 l 523 0 l 417 427 l 305 0 l 178 0 l 96 910 l 203 910 l 260 117 l 354 515 l 481 515 l 572 117 z "},"X":{"ha":833,"x_min":127,"x_max":707,"o":"m 152 910 l 288 910 l 427 545 l 581 910 l 701 910 l 500 466 l 707 0 l 576 0 l 418 382 l 255 0 l 127 0 l 346 465 l 152 910 z "},"Y":{"ha":833,"x_min":83,"x_max":750,"o":"m 471 0 l 357 0 l 357 362 l 84 910 l 210 910 l 414 473 l 621 910 l 750 910 l 471 362 l 471 0 z "},"Z":{"ha":833,"x_min":156,"x_max":682,"o":"m 291 89 l 677 89 l 677 0 l 156 0 l 156 87 l 539 821 l 178 821 l 178 910 l 682 910 l 682 833 l 291 89 z "},"[":{"ha":833,"x_min":241,"x_max":562,"o":"m 241 -80 l 241 1053 q 244 1056 242 1055 l 558 1056 q 561 1053 560 1055 l 561 972 q 558 969 560 970 l 357 969 l 357 3 l 559 3 q 562 1 561 3 l 562 -80 q 559 -83 561 -82 l 244 -83 q 241 -80 242 -82 z "},"\\":{"ha":833,"x_min":118,"x_max":661,"o":"m 661 -29 l 551 -29 l 118 1075 l 230 1075 l 661 -29 z "},"]":{"ha":833,"x_min":153,"x_max":473,"o":"m 473 -80 q 470 -83 473 -82 l 156 -83 q 153 -80 153 -82 l 153 1 q 156 3 153 3 l 357 3 l 357 969 l 156 969 q 153 972 154 970 l 153 1053 q 156 1056 154 1055 l 470 1056 q 473 1053 473 1055 l 473 -80 z "},"^":{"ha":833,"x_min":68,"x_max":791,"o":"m 393 949 l 462 949 l 791 364 l 686 364 l 426 835 l 174 364 l 68 364 l 393 949 z "},"_":{"ha":833,"x_min":3,"x_max":656,"o":"m 3 -180 l 3 -96 l 656 -96 l 656 -180 l 3 -180 z "},"`":{"ha":833,"x_min":255,"x_max":572,"o":"m 399 1040 l 572 774 l 487 774 l 255 1040 l 399 1040 z "},"a":{"ha":833,"x_min":136,"x_max":652,"o":"m 136 171 q 150 256 136 219 q 191 317 165 293 q 254 357 216 342 q 336 379 292 373 q 435 386 380 386 l 543 385 l 543 442 q 504 565 543 527 q 390 602 465 602 q 202 568 319 602 l 177 648 q 399 689 296 689 q 479 682 442 689 q 548 657 515 674 q 603 613 580 640 q 638 547 625 587 q 652 456 652 507 l 652 0 l 562 0 l 547 73 q 462 8 517 32 q 345 -15 407 -15 q 268 -4 304 -15 q 201 29 231 7 q 153 87 171 51 q 136 171 136 124 m 543 152 l 543 314 l 439 313 q 368 306 401 313 q 305 284 334 299 q 259 241 276 269 q 243 176 243 214 q 273 91 243 118 q 353 64 303 64 q 462 91 406 64 q 543 152 519 118 z "},"b":{"ha":833,"x_min":132,"x_max":707,"o":"m 243 577 q 322 660 275 629 q 443 690 369 690 q 563 663 511 690 q 646 589 615 637 q 692 480 677 541 q 707 347 707 420 q 698 234 707 286 q 668 135 688 181 q 616 56 647 89 q 539 4 585 23 q 436 -15 493 -15 q 350 0 387 -15 q 291 35 313 15 q 243 92 270 56 l 232 0 l 132 0 l 132 943 l 243 955 l 243 577 m 243 339 q 247 256 243 293 q 264 183 252 218 q 296 123 276 147 q 348 85 315 100 q 422 71 380 71 q 494 86 463 71 q 544 127 526 102 q 575 189 563 153 q 591 261 587 224 q 595 339 595 297 q 588 439 595 396 q 564 522 581 483 q 510 583 546 562 q 422 604 475 604 q 346 590 378 604 q 294 554 313 576 q 262 496 274 531 q 247 424 251 460 q 243 339 243 387 z "},"c":{"ha":833,"x_min":126,"x_max":633,"o":"m 633 44 q 552 0 602 15 q 450 -15 503 -15 q 337 4 389 -15 q 246 56 284 23 q 180 134 208 90 q 140 231 153 178 q 126 339 126 283 q 164 512 126 433 q 277 641 203 591 q 448 690 352 690 q 551 673 504 690 q 629 632 599 657 l 583 564 q 450 604 525 604 q 297 529 356 604 q 239 336 239 454 q 297 145 239 219 q 455 71 355 71 q 589 113 530 71 l 633 44 z "},"d":{"ha":833,"x_min":126,"x_max":699,"o":"m 588 577 l 588 943 l 699 955 l 699 0 l 598 0 l 588 104 q 549 51 571 75 q 486 6 527 26 q 397 -15 445 -15 q 273 13 326 -15 q 188 90 220 41 q 141 202 157 140 q 126 340 126 265 q 142 475 126 414 q 191 586 159 537 q 275 662 222 635 q 397 690 328 690 q 520 659 472 690 q 588 577 568 627 m 588 339 q 584 424 588 387 q 569 496 581 460 q 538 554 557 531 q 486 590 519 576 q 410 604 454 604 q 336 589 368 604 q 286 548 304 573 q 257 487 268 524 q 242 413 245 450 q 238 332 238 377 q 410 71 238 71 q 588 339 588 71 z "},"e":{"ha":833,"x_min":126,"x_max":663,"o":"m 556 399 q 412 604 544 604 q 337 588 369 604 q 286 542 305 572 q 257 477 267 511 q 242 399 247 443 l 556 399 m 126 339 q 157 515 126 436 q 251 642 189 594 q 397 690 314 690 q 515 664 464 690 q 598 591 567 637 q 646 484 630 544 q 663 355 663 425 l 663 317 l 238 317 q 261 194 241 248 q 327 105 281 140 q 436 71 372 71 q 600 130 530 71 l 649 68 q 556 7 606 28 q 433 -15 505 -15 q 264 32 334 -15 q 160 158 194 79 q 126 339 126 237 z "},"f":{"ha":833,"x_min":125,"x_max":641,"o":"m 412 0 l 301 0 l 301 584 l 125 584 l 125 669 l 301 669 q 302 734 301 708 q 306 789 303 760 q 315 838 309 819 q 331 878 321 857 q 355 910 340 898 q 390 935 370 923 q 437 954 410 947 q 499 963 465 960 q 576 967 533 967 l 641 967 l 635 882 l 574 882 q 512 879 536 882 q 467 869 488 876 q 435 847 446 861 q 418 809 425 832 q 412 751 412 785 l 412 669 l 641 669 l 641 584 l 412 584 l 412 0 z "},"g":{"ha":833,"x_min":96,"x_max":680,"o":"m 392 604 q 208 336 208 604 q 218 250 208 290 q 249 174 229 209 q 306 119 270 140 q 387 99 341 99 q 461 113 429 99 q 513 149 493 126 q 546 203 533 172 q 563 268 558 235 q 568 339 568 301 q 564 420 568 384 q 548 492 559 457 q 516 551 536 528 q 466 590 497 575 q 392 604 434 604 m 577 128 q 500 38 557 77 q 376 0 444 0 q 230 46 294 0 q 131 170 165 93 q 96 339 96 247 q 126 518 96 440 q 222 643 157 595 q 380 690 287 690 q 568 578 500 690 l 572 669 l 680 669 l 680 37 q 596 -216 680 -135 q 351 -298 513 -298 q 210 -288 256 -298 l 210 -205 q 342 -213 245 -213 q 409 -207 377 -213 q 472 -184 440 -201 q 526 -143 503 -168 q 563 -76 549 -117 q 577 18 577 -35 l 577 128 z "},"h":{"ha":833,"x_min":152,"x_max":665,"o":"m 665 404 l 665 0 l 555 0 l 555 390 q 552 457 555 428 q 541 515 549 486 q 519 563 533 544 q 481 593 505 581 q 425 604 458 604 q 308 557 352 604 q 263 455 263 511 l 263 0 l 152 0 l 152 943 l 263 955 l 263 589 q 293 623 279 609 q 330 654 307 637 q 387 681 354 671 q 460 690 420 690 q 665 404 665 690 z "},"i":{"ha":833,"x_min":178,"x_max":694,"o":"m 199 584 l 199 669 l 502 669 l 502 85 l 694 85 l 694 0 l 178 0 l 178 85 l 391 85 l 391 584 l 199 584 m 372 846 l 372 906 q 397 945 372 928 q 446 962 422 962 q 495 945 471 962 q 520 906 520 928 l 520 846 q 495 807 520 824 q 446 791 471 791 q 397 807 422 791 q 372 846 372 824 z "},"j":{"ha":833,"x_min":121,"x_max":538,"o":"m 390 846 l 390 906 q 415 945 390 928 q 464 962 439 962 q 513 945 488 962 q 538 906 538 928 l 538 846 q 513 807 538 824 q 464 791 488 791 q 415 807 439 791 q 390 846 390 824 m 281 -134 q 338 -130 317 -134 q 375 -116 359 -125 q 397 -84 390 -106 q 407 -33 404 -62 q 410 43 410 -5 l 410 584 l 171 584 l 171 669 l 521 669 l 521 77 q 520 14 521 39 q 517 -40 519 -10 q 510 -88 515 -70 q 496 -128 505 -106 q 476 -162 488 -149 q 446 -187 463 -174 q 404 -205 428 -199 q 350 -216 380 -212 q 281 -220 319 -220 l 121 -220 l 121 -134 l 281 -134 z "},"k":{"ha":833,"x_min":180,"x_max":762,"o":"m 292 378 l 580 669 l 721 669 l 433 377 l 762 0 l 629 0 l 351 332 l 292 279 l 292 0 l 180 0 l 180 943 l 292 955 l 292 378 z "},"l":{"ha":833,"x_min":79,"x_max":629,"o":"m 629 0 l 541 0 q 442 5 483 0 q 372 25 401 11 q 325 57 342 39 q 297 107 308 75 q 283 175 287 140 q 279 264 279 211 l 279 869 l 79 869 l 79 955 l 390 955 l 390 270 q 391 204 390 229 q 398 156 393 179 q 413 121 404 132 q 439 100 422 109 q 479 88 456 91 q 536 85 502 85 l 629 85 l 629 0 z "},"m":{"ha":833,"x_min":95,"x_max":730,"o":"m 557 604 q 522 597 537 604 q 497 580 507 590 q 480 552 487 570 q 470 521 473 534 q 466 485 467 508 q 464 449 464 461 q 463 415 463 437 l 463 0 l 370 0 l 370 408 q 369 452 370 435 q 366 495 368 469 q 359 537 364 521 q 346 571 354 554 q 324 596 338 588 q 292 604 311 604 q 238 577 260 604 q 206 514 215 550 q 197 440 197 479 l 197 0 l 95 0 l 95 669 l 183 669 l 190 581 q 239 659 208 627 q 316 690 270 690 q 396 662 363 690 q 441 586 429 635 q 496 664 462 638 q 583 690 530 690 q 646 674 619 690 q 689 635 673 659 q 714 576 705 612 q 727 506 724 541 q 730 429 730 472 l 730 0 l 628 0 l 628 416 q 628 455 628 441 q 626 491 627 469 q 622 527 625 514 q 614 557 620 541 q 602 583 609 574 q 583 598 594 591 q 557 604 572 604 z "},"n":{"ha":833,"x_min":149,"x_max":673,"o":"m 465 690 q 673 426 673 690 l 673 0 l 562 0 q 562 412 562 0 q 561 455 562 439 q 557 494 560 471 q 550 531 555 517 q 535 560 545 545 q 511 584 525 576 q 475 598 496 593 q 425 604 453 604 q 309 563 359 604 q 260 453 260 522 l 260 0 l 149 0 l 149 669 l 251 669 l 257 597 q 465 690 324 690 z "},"o":{"ha":833,"x_min":126,"x_max":707,"o":"m 415 690 q 545 663 488 690 q 636 589 602 637 q 689 479 671 542 q 707 340 707 416 q 629 82 707 180 q 415 -15 550 -15 q 287 13 343 -15 q 196 88 231 40 q 144 199 161 136 q 126 336 126 262 q 204 593 126 496 q 415 690 281 690 m 239 336 q 243 258 239 294 q 261 186 248 221 q 293 126 273 151 q 343 86 312 101 q 415 71 375 71 q 489 86 456 71 q 541 126 521 101 q 573 186 561 151 q 591 259 586 222 q 596 338 596 296 q 591 416 596 380 q 573 488 586 453 q 541 549 561 524 q 489 589 521 574 q 415 604 456 604 q 329 581 365 604 q 274 518 293 558 q 247 433 256 478 q 239 336 239 389 z "},"p":{"ha":833,"x_min":129,"x_max":707,"o":"m 441 -15 q 318 21 368 -15 q 240 107 269 56 l 240 -257 l 129 -269 l 129 669 l 230 669 l 240 577 q 318 659 269 627 q 434 690 367 690 q 556 663 503 690 q 642 589 609 636 q 691 480 674 542 q 707 347 707 419 q 698 235 707 288 q 667 136 688 182 q 615 57 646 90 q 540 4 585 23 q 441 -15 495 -15 m 239 339 q 427 71 239 71 q 596 339 596 71 q 589 439 596 395 q 564 522 582 483 q 512 583 547 562 q 425 604 477 604 q 334 584 372 604 q 276 527 296 564 q 248 444 256 489 q 239 339 239 398 z "},"q":{"ha":833,"x_min":126,"x_max":726,"o":"m 615 562 l 615 669 l 726 669 l 726 -257 l 616 -269 l 616 110 q 534 20 589 56 q 406 -15 479 -15 q 281 14 336 -15 q 193 93 226 43 q 143 207 159 143 q 126 347 126 271 q 144 480 126 419 q 195 589 161 542 q 283 663 229 636 q 406 690 338 690 q 531 656 481 690 q 615 562 581 623 m 615 339 q 419 604 615 604 q 238 339 238 604 q 247 241 238 286 q 275 156 256 196 q 332 94 295 117 q 419 71 369 71 q 512 92 473 71 q 573 151 551 113 q 605 236 595 189 q 615 339 615 283 z "},"r":{"ha":833,"x_min":220,"x_max":628,"o":"m 332 0 l 220 0 l 220 669 l 311 669 l 320 546 q 428 653 361 616 q 578 690 494 690 l 628 690 l 628 587 l 563 587 q 394 533 456 587 q 332 372 332 480 l 332 0 z "},"s":{"ha":833,"x_min":169,"x_max":644,"o":"m 644 180 q 577 37 644 89 q 409 -15 510 -15 q 269 3 337 -15 q 169 45 201 21 l 215 119 q 395 71 292 71 q 504 101 462 71 q 545 184 545 132 q 525 247 545 221 q 447 286 504 272 l 334 315 q 205 383 239 338 q 171 498 171 428 q 232 633 171 576 q 399 690 292 690 q 606 644 522 690 l 569 572 q 402 609 479 609 q 309 581 345 608 q 272 503 272 553 q 290 445 272 468 q 360 409 309 422 l 477 380 q 603 311 561 359 q 644 180 644 263 z "},"t":{"ha":833,"x_min":59,"x_max":629,"o":"m 359 584 l 359 270 q 382 125 359 165 q 475 84 404 86 l 629 84 l 629 -2 l 460 -2 q 370 10 408 -2 q 309 45 332 22 q 272 105 285 67 q 253 188 258 143 q 248 298 248 233 l 248 584 l 59 584 l 71 669 l 248 669 l 248 901 l 359 933 l 359 669 l 629 669 l 629 584 l 359 584 z "},"u":{"ha":833,"x_min":151,"x_max":683,"o":"m 683 298 l 683 670 l 572 670 l 572 295 q 571 243 572 262 q 567 198 570 224 q 558 155 564 171 q 542 121 553 139 q 515 93 531 103 q 475 77 499 83 q 421 71 452 71 q 363 77 389 71 q 321 93 338 83 q 293 121 304 103 q 275 155 281 139 q 266 198 269 171 q 262 243 263 224 q 262 295 262 262 l 262 670 l 151 670 l 151 298 q 212 58 151 132 q 421 -15 274 -15 q 623 59 564 -15 q 683 298 683 132 z "},"v":{"ha":833,"x_min":99,"x_max":734,"o":"m 419 100 q 522 402 458 205 q 610 669 586 599 l 734 669 l 479 0 l 354 0 l 99 669 l 224 669 l 419 100 z "},"w":{"ha":833,"x_min":62,"x_max":772,"o":"m 306 0 l 192 0 l 62 669 l 174 669 l 253 119 l 360 669 l 492 669 l 597 120 l 667 669 l 772 669 l 650 0 l 545 0 l 425 582 l 306 0 z "},"x":{"ha":833,"x_min":125,"x_max":708,"o":"m 578 669 l 694 669 l 244 0 l 126 0 l 578 669 m 137 669 l 260 669 l 427 400 l 475 364 l 708 0 l 593 0 l 411 283 l 358 330 l 137 669 z "},"y":{"ha":833,"x_min":96,"x_max":739,"o":"m 283 -248 l 379 -5 l 96 669 l 212 669 l 433 117 l 627 669 l 739 669 q 495 20 555 165 l 380 -281 l 283 -248 z "},"z":{"ha":833,"x_min":176,"x_max":641,"o":"m 188 669 l 619 669 l 619 585 l 293 85 l 641 84 l 641 0 l 176 0 l 176 87 l 496 584 l 188 584 l 188 669 z "},"{":{"ha":833,"x_min":137,"x_max":672,"o":"m 314 278 q 265 389 314 350 q 137 433 216 428 l 137 515 q 265 559 216 520 q 314 669 314 597 l 314 812 q 363 986 314 932 q 531 1041 413 1041 l 533 1041 l 672 1040 l 672 958 l 533 958 q 494 949 510 958 q 469 929 478 941 q 456 897 460 918 q 450 858 451 876 q 449 812 449 840 l 449 665 q 439 589 449 621 q 407 536 429 557 q 361 502 385 515 q 299 473 338 488 q 362 446 338 458 q 407 411 385 433 q 439 359 429 390 q 449 283 449 328 l 449 136 q 450 90 449 108 q 456 51 451 72 q 469 18 460 30 q 494 -2 478 6 q 533 -10 510 -10 l 672 -10 l 672 -93 l 533 -94 l 531 -94 q 363 -39 413 -94 q 314 136 314 16 l 314 278 z "},"|":{"ha":833,"x_min":323,"x_max":422,"o":"m 323 -269 l 323 967 l 422 967 l 422 -269 l 323 -269 z "},"}":{"ha":833,"x_min":123,"x_max":659,"o":"m 482 669 q 531 559 482 597 q 659 515 580 520 l 659 433 q 531 389 580 428 q 482 278 482 350 l 482 136 q 432 -39 482 16 q 265 -94 382 -94 l 263 -94 l 123 -93 l 123 -10 l 263 -10 q 302 -2 286 -10 q 327 18 318 6 q 340 51 336 30 q 346 90 345 73 q 347 136 347 108 l 347 283 q 356 359 347 328 q 388 411 366 390 q 434 446 410 433 q 496 473 457 458 q 434 502 458 488 q 388 536 410 515 q 356 589 366 557 q 347 665 347 621 l 347 812 q 346 858 347 840 q 340 897 345 876 q 327 930 336 918 q 302 949 318 941 q 263 958 286 958 l 123 958 l 123 1040 l 263 1041 l 265 1041 q 432 986 382 1041 q 482 812 482 932 l 482 669 z "},"~":{"ha":833,"x_min":55,"x_max":696,"o":"m 55 515 q 69 570 61 545 q 91 621 77 595 q 123 664 105 646 q 169 692 142 681 q 229 703 196 703 q 320 684 274 703 q 397 644 366 666 q 459 604 427 622 q 511 585 491 585 q 542 595 529 585 q 562 625 554 604 q 573 658 570 646 q 582 696 576 669 q 583 698 583 697 q 583 700 583 699 q 583 702 583 701 l 696 676 q 686 632 690 646 q 675 593 683 618 q 660 554 667 567 q 640 524 652 541 q 611 497 627 506 q 573 483 595 489 q 524 476 551 476 q 434 495 481 476 q 356 535 387 513 q 291 576 324 557 q 239 595 258 595 q 166 479 183 595 l 55 515 z "}," ":{"ha":833,"x_min":0,"x_max":0,"o":""},"¡":{"ha":833,"x_min":302,"x_max":448,"o":"m 394 391 l 448 -221 l 302 -221 l 356 391 l 394 391 m 302 690 l 448 690 l 448 522 l 302 522 l 302 690 z "},"¢":{"ha":833,"x_min":119,"x_max":625,"o":"m 393 76 l 393 599 q 275 509 320 581 q 231 336 231 437 q 274 166 231 237 q 393 76 317 95 m 472 -169 l 393 -169 l 393 -12 q 244 51 307 -1 q 150 177 180 103 q 119 339 119 252 q 193 570 119 471 q 393 686 268 669 l 393 835 l 472 835 l 472 688 q 623 632 572 681 l 595 557 q 472 602 541 594 l 472 71 q 597 119 538 77 l 625 44 q 472 -14 570 -6 l 472 -169 z "},"£":{"ha":833,"x_min":130,"x_max":633,"o":"m 633 0 l 134 0 l 134 92 q 174 124 157 104 q 202 170 191 143 q 219 222 212 197 q 228 286 225 248 q 232 352 231 324 q 233 425 233 380 l 233 458 l 130 458 l 130 538 l 232 538 q 227 624 227 591 q 286 846 227 766 q 459 925 345 925 q 627 873 543 925 l 598 800 q 472 836 526 836 q 339 643 339 836 q 347 538 339 598 l 570 538 l 570 458 l 349 458 l 349 437 q 347 334 349 375 q 339 238 345 294 q 319 145 334 182 q 281 89 304 107 l 633 89 l 633 0 z "},"¤":{"ha":833,"x_min":23,"x_max":729,"o":"m 228 723 q 197 692 228 723 q 166 574 166 661 q 228 426 166 488 q 376 363 290 363 q 525 426 463 363 q 587 574 587 488 q 525 723 587 661 q 376 785 463 785 q 228 723 290 785 m 198 772 q 376 840 273 840 q 557 770 481 840 l 701 903 l 729 869 l 586 737 q 642 574 642 663 q 587 412 642 486 l 729 280 l 701 246 l 557 380 q 376 309 480 309 q 198 378 274 309 l 56 246 l 23 277 l 168 410 q 111 574 111 484 q 168 739 111 665 l 23 872 l 56 903 l 198 772 z "},"¥":{"ha":833,"x_min":42,"x_max":708,"o":"m 96 180 l 97 273 l 315 273 l 315 365 q 100 365 315 365 l 100 460 l 266 460 l 42 910 l 168 910 l 372 473 l 579 910 l 708 910 l 479 460 l 643 460 l 643 365 q 429 365 643 365 l 429 273 l 645 273 l 645 180 l 429 180 l 429 0 l 315 0 l 315 180 l 96 180 z "},"¦":{"ha":833,"x_min":329,"x_max":434,"o":"m 329 260 l 434 260 l 434 -326 l 329 -326 l 329 260 m 329 1023 l 434 1023 l 434 449 l 329 449 l 329 1023 z "},"§":{"ha":833,"x_min":149,"x_max":639,"o":"m 586 864 q 434 899 505 899 q 289 812 289 899 q 295 777 289 793 q 313 747 300 760 q 336 724 325 734 q 368 705 348 715 q 400 690 388 695 q 434 676 412 685 q 464 665 456 668 q 570 612 541 632 q 639 488 638 564 q 628 431 639 458 q 596 383 617 404 q 557 348 576 362 q 514 319 539 334 q 623 168 623 264 q 583 55 623 102 q 481 -12 542 9 q 349 -32 421 -32 q 167 3 250 -32 l 166 101 q 345 59 258 59 q 403 64 376 59 q 454 81 430 70 q 492 113 478 93 q 506 161 506 134 q 496 198 506 181 q 473 227 487 216 q 438 249 460 238 q 400 267 417 260 q 361 281 384 273 q 327 294 338 290 q 285 312 301 304 q 245 332 269 319 q 207 359 221 345 q 177 391 192 373 q 156 433 163 410 q 149 484 149 456 q 160 542 149 515 q 191 587 171 568 q 230 620 211 607 q 275 647 250 633 q 200 711 228 675 q 173 803 173 748 q 194 890 173 853 q 251 948 214 927 q 332 979 287 969 q 431 989 377 989 q 585 962 491 989 l 586 864 m 422 363 q 454 383 441 374 q 484 407 467 392 q 509 440 500 422 q 518 479 518 458 q 507 518 518 500 q 475 549 496 536 q 436 571 455 562 q 393 590 418 580 q 357 605 368 600 q 268 492 268 557 q 273 462 268 476 q 290 436 278 448 q 311 416 302 425 q 339 399 320 408 q 368 385 359 389 q 398 373 376 381 q 422 363 419 364 z "},"¨":{"ha":833,"x_min":186,"x_max":563,"o":"m 186 890 l 299 890 l 299 778 l 186 778 l 186 890 m 452 778 l 452 890 l 563 890 l 563 778 l 452 778 z "},"©":{"ha":833,"x_min":-7,"x_max":757,"o":"m 757 572 q 706 388 757 469 q 569 265 655 308 q 377 222 483 222 q 183 266 270 222 q 44 389 96 309 q -7 573 -7 470 q 44 757 -7 676 q 182 881 96 838 q 374 924 269 924 q 567 881 480 924 q 705 756 654 837 q 756 572 756 675 l 757 572 m 374 869 q 144 787 235 869 q 53 584 53 704 q 80 453 53 512 q 151 355 106 393 q 251 297 195 317 q 365 276 306 276 q 605 360 513 276 q 696 572 696 444 q 676 679 696 630 q 625 763 657 728 q 552 822 593 797 q 465 858 510 846 q 374 869 419 869 m 518 693 q 391 738 467 738 q 276 693 319 738 q 233 576 233 648 l 235 576 q 279 458 235 503 q 397 413 323 413 q 515 450 471 413 l 534 393 q 389 351 474 351 q 267 384 319 351 q 188 467 214 416 q 161 575 161 517 q 195 696 161 645 q 280 772 229 747 q 394 796 332 796 q 533 749 475 796 l 518 693 z "},"ª":{"ha":833,"x_min":168,"x_max":581,"o":"m 199 840 q 391 924 249 924 q 528 884 479 924 q 576 763 576 844 q 575 685 576 736 q 574 608 574 633 q 581 465 574 535 l 492 465 l 488 514 q 339 454 439 454 q 217 490 267 454 q 168 591 168 526 q 177 640 168 618 q 198 676 185 662 q 234 702 212 691 q 276 719 256 713 q 327 730 297 725 q 379 736 357 734 q 434 742 402 739 q 486 747 467 745 q 465 829 486 806 q 387 852 444 852 q 245 789 286 852 l 199 840 m 354 522 q 451 561 416 522 q 487 664 487 600 l 487 680 q 434 674 469 677 q 373 669 399 672 q 319 659 347 666 q 277 634 292 651 q 262 593 262 618 q 354 522 262 522 z "},"«":{"ha":833,"x_min":120,"x_max":663,"o":"m 414 606 l 235 359 l 408 113 l 302 113 l 120 359 l 307 606 l 414 606 m 663 606 l 485 359 l 657 113 l 552 113 l 370 359 l 555 606 l 663 606 z "},"¬":{"ha":833,"x_min":83,"x_max":668,"o":"m 567 437 l 83 437 l 83 528 l 668 528 l 668 157 l 567 157 l 567 437 z "},"­":{"ha":833,"x_min":0,"x_max":0,"o":""},"®":{"ha":833,"x_min":-7,"x_max":757,"o":"m 374 831 q 568 787 481 831 q 705 663 654 744 q 756 479 756 583 l 757 479 q 706 295 757 376 q 569 171 656 214 q 377 128 483 128 q 183 171 270 128 q 44 295 96 214 q -7 479 -7 376 q 44 664 -7 583 q 182 788 96 745 q 374 831 269 831 m 53 481 q 82 350 53 408 q 160 255 112 291 q 267 201 209 220 q 387 182 326 182 q 515 207 456 182 q 613 272 574 231 q 674 363 652 312 q 696 469 696 415 q 669 600 696 541 q 598 698 642 660 q 498 756 553 736 q 385 777 443 777 q 144 693 235 777 q 53 481 53 608 m 490 271 q 464 317 483 283 q 433 370 444 351 q 401 413 421 389 q 362 452 382 437 l 298 452 l 298 271 l 227 271 l 227 696 l 356 696 l 355 696 q 559 577 559 696 q 524 496 559 526 q 434 460 488 466 q 464 428 450 445 q 494 388 479 410 q 519 352 510 366 q 546 309 528 338 q 569 271 563 280 l 490 271 m 296 506 l 367 506 q 404 507 391 506 q 435 511 417 507 q 463 520 453 514 q 479 539 472 527 q 486 570 486 552 q 398 640 486 640 l 296 640 l 296 506 z "},"¯":{"ha":833,"x_min":168,"x_max":583,"o":"m 168 842 l 168 924 l 583 924 l 583 842 l 168 842 z "},"°":{"ha":833,"x_min":159,"x_max":591,"o":"m 283 677 q 302 660 283 677 q 376 644 321 644 q 468 677 430 644 q 507 763 507 711 q 468 847 507 814 q 376 880 430 880 q 283 847 321 880 q 244 763 244 814 q 283 677 244 711 m 591 762 q 527 622 591 677 q 376 567 463 567 q 221 627 283 567 q 159 762 159 688 q 223 901 159 846 q 376 956 287 956 q 530 897 469 956 q 591 762 591 837 z "},"±":{"ha":833,"x_min":82,"x_max":669,"o":"m 321 733 l 422 733 l 422 486 l 667 486 l 667 393 l 425 393 l 425 148 l 323 148 l 323 393 l 82 393 l 82 486 l 321 486 l 321 733 m 82 92 l 669 92 l 669 0 l 82 0 l 82 92 z "},"²":{"ha":833,"x_min":191,"x_max":559,"o":"m 369 925 q 506 887 453 925 q 559 774 559 850 q 471 593 559 689 q 314 449 432 549 l 559 449 l 559 371 l 191 371 l 191 444 q 245 493 206 458 q 306 548 283 528 q 359 600 328 569 q 414 662 391 631 q 456 723 437 692 q 473 773 473 753 l 473 773 q 447 828 473 810 q 379 847 420 847 q 253 760 294 847 l 195 812 q 262 893 216 861 q 369 925 308 925 z "},"³":{"ha":833,"x_min":191,"x_max":559,"o":"m 231 488 q 354 435 288 435 l 354 435 q 438 457 405 435 q 472 525 472 480 q 327 614 472 614 l 289 612 l 289 692 q 329 692 315 692 q 367 695 344 692 q 402 702 389 697 q 429 716 415 707 q 449 739 443 724 q 455 772 455 753 q 360 846 455 846 q 230 795 297 846 l 191 859 q 362 926 263 926 q 493 884 441 926 q 545 768 545 842 q 473 654 545 693 q 559 524 559 618 q 500 403 559 447 q 357 359 442 359 q 191 423 257 359 l 231 488 z "},"´":{"ha":833,"x_min":255,"x_max":556,"o":"m 255 774 l 414 1040 l 556 1040 l 342 774 l 255 774 z "},"µ":{"ha":833,"x_min":119,"x_max":644,"o":"m 231 30 l 231 -180 l 119 -180 l 119 669 l 231 669 l 231 257 q 231 214 231 230 q 235 175 232 198 q 242 138 237 152 q 257 109 248 125 q 281 85 267 94 q 317 71 296 77 q 367 65 339 65 q 483 107 433 65 q 532 217 532 149 l 532 669 l 644 669 l 644 0 l 541 0 l 535 73 q 328 -14 469 -14 q 231 30 273 -14 z "},"¶":{"ha":833,"x_min":40,"x_max":650,"o":"m 40 749 q 389 962 40 962 l 650 962 l 650 880 l 591 880 l 591 -98 l 503 -98 l 503 880 l 363 880 l 363 -98 l 267 -98 l 267 521 q 104 586 168 522 q 40 749 40 650 z "},"·":{"ha":833,"x_min":297,"x_max":444,"o":"m 297 340 l 297 479 l 444 479 l 444 340 l 297 340 z "},"¸":{"ha":833,"x_min":261,"x_max":542,"o":"m 369 -207 q 446 -159 446 -207 q 372 -112 446 -112 q 326 -115 359 -112 l 347 12 l 413 12 l 401 -60 l 406 -59 q 505 -83 467 -59 q 542 -159 542 -106 q 376 -261 542 -261 q 261 -247 330 -261 l 267 -191 q 369 -207 332 -207 z "},"¹":{"ha":833,"x_min":241,"x_max":509,"o":"m 345 843 q 241 797 294 818 l 242 883 q 355 936 303 903 l 426 945 l 426 477 l 509 477 l 509 400 l 262 400 l 262 479 l 345 479 l 345 843 z "},"º":{"ha":833,"x_min":172,"x_max":659,"o":"m 418 509 q 238 571 304 509 q 172 745 172 634 q 239 915 172 852 q 416 978 307 978 q 594 916 529 978 q 659 743 659 853 q 593 572 659 635 q 418 509 527 509 m 418 580 q 526 625 486 580 q 566 741 566 670 q 527 862 566 818 q 416 907 489 907 q 306 862 345 907 q 267 743 267 817 q 306 624 267 669 q 418 580 346 580 z "},"»":{"ha":833,"x_min":120,"x_max":681,"o":"m 120 113 l 298 359 l 124 606 l 232 606 l 414 359 l 228 113 l 120 113 m 388 113 l 565 359 l 393 606 l 498 606 l 681 359 l 494 113 l 388 113 z "},"¼":{"ha":833,"x_min":-3,"x_max":751,"o":"m 593 149 l 406 149 l 406 210 l 585 553 l 676 553 l 676 220 l 751 220 l 751 149 l 675 149 l 675 1 l 593 1 l 593 149 m 213 1 l 132 1 l 613 952 l 693 952 l 213 1 m 593 220 l 593 442 l 487 220 l 593 220 m 100 843 l -3 797 l -3 883 l 111 936 l 182 945 l 182 477 l 264 477 l 264 400 l 18 400 l 18 479 l 100 479 l 100 843 z "},"½":{"ha":833,"x_min":-22,"x_max":745,"o":"m 172 1 l 90 1 l 572 952 l 652 952 l 172 1 m 80 843 l -22 797 l -22 883 l 91 936 l 162 945 l 162 477 l 245 477 l 245 400 l -2 400 l -2 479 l 80 479 l 80 843 m 666 388 q 645 440 666 421 q 600 458 623 458 q 542 438 571 458 q 498 389 512 417 l 441 441 q 507 518 463 491 q 601 545 551 545 q 703 507 661 545 q 745 400 745 469 q 733 320 745 358 q 693 243 721 283 q 631 166 665 203 q 541 77 597 130 l 743 77 l 743 -1 l 435 -1 l 435 73 q 666 388 666 302 z "},"¾":{"ha":833,"x_min":-1,"x_max":751,"o":"m 593 149 l 406 149 l 406 210 l 585 553 l 676 553 l 676 220 l 751 220 l 751 149 l 675 149 l 675 1 l 593 1 l 593 149 m 213 1 l 132 1 l 613 952 l 693 952 l 213 1 m 593 220 l 593 442 l 487 220 l 593 220 m 33 516 q 92 481 55 496 q 162 467 128 467 q 221 487 199 467 q 243 553 243 508 q 231 599 243 581 q 196 627 219 618 q 149 639 174 635 q 93 642 125 642 q 77 642 88 642 q 61 642 66 642 l 61 721 q 101 721 87 721 q 139 724 116 722 q 174 731 161 726 q 201 745 187 736 q 221 768 215 753 q 227 801 227 782 q 208 861 227 842 q 156 880 188 880 q 87 863 123 880 q 32 824 52 846 l -1 888 q 75 934 31 917 q 163 951 119 951 q 273 912 229 951 q 317 797 317 874 q 220 684 317 722 q 301 635 270 670 q 332 552 332 601 q 282 432 332 473 q 160 391 233 391 q 73 407 115 391 q -1 452 30 423 l 33 516 z "},"¿":{"ha":833,"x_min":102,"x_max":585,"o":"m 102 53 q 117 126 102 91 q 155 190 132 161 q 208 245 179 218 q 264 298 236 272 q 316 349 292 323 q 354 405 340 374 q 369 465 369 435 q 360 560 369 514 l 468 560 q 475 457 475 504 l 475 456 q 461 380 475 415 q 424 319 447 345 q 373 270 401 294 q 318 224 346 247 q 268 177 291 201 q 231 121 245 153 q 216 51 216 89 q 415 -81 216 -81 q 585 -36 502 -81 l 585 -132 q 415 -176 493 -176 q 317 -168 362 -176 q 232 -144 272 -161 q 163 -101 192 -127 q 119 -36 135 -75 q 102 53 102 3 m 488 812 l 488 673 l 340 673 l 340 812 l 488 812 z "},"À":{"ha":833,"x_min":92,"x_max":742,"o":"m 286 1266 l 458 1000 l 373 1000 l 141 1266 l 286 1266 m 481 910 l 742 0 l 625 0 l 540 301 l 293 301 l 208 0 l 92 0 l 351 910 l 481 910 m 317 381 l 515 381 l 418 795 l 317 381 z "},"Á":{"ha":833,"x_min":92,"x_max":742,"o":"m 373 1000 l 532 1266 l 674 1266 l 460 1000 l 373 1000 m 481 910 l 742 0 l 625 0 l 540 301 l 293 301 l 208 0 l 92 0 l 351 910 l 481 910 m 317 381 l 515 381 l 418 795 l 317 381 z "},"Â":{"ha":833,"x_min":92,"x_max":742,"o":"m 467 1213 l 625 1000 l 537 1000 l 413 1143 l 290 1000 l 207 1000 l 365 1213 l 467 1213 m 481 910 l 742 0 l 625 0 l 540 301 l 293 301 l 208 0 l 92 0 l 351 910 l 481 910 m 317 381 l 515 381 l 418 795 l 317 381 z "},"Ã":{"ha":833,"x_min":92,"x_max":742,"o":"m 654 1150 q 617 1041 651 1083 q 519 1000 583 1000 q 463 1010 490 1000 q 417 1035 435 1021 q 372 1059 399 1048 q 317 1070 345 1070 q 260 1008 262 1070 l 177 1008 q 215 1118 178 1078 q 319 1158 252 1158 q 376 1146 349 1158 q 421 1122 403 1135 q 466 1098 439 1109 q 521 1086 492 1086 q 570 1150 565 1086 l 654 1150 m 481 910 l 742 0 l 625 0 l 540 301 l 293 301 l 208 0 l 92 0 l 351 910 l 481 910 m 317 381 l 515 381 l 418 795 l 317 381 z "},"Ä":{"ha":833,"x_min":92,"x_max":742,"o":"m 210 1116 l 322 1116 l 322 1004 l 210 1004 l 210 1116 m 475 1004 l 475 1116 l 586 1116 l 586 1004 l 475 1004 m 481 910 l 742 0 l 625 0 l 540 301 l 293 301 l 208 0 l 92 0 l 351 910 l 481 910 m 317 381 l 515 381 l 418 795 l 317 381 z "},"Å":{"ha":833,"x_min":92,"x_max":742,"o":"m 424 1113 q 365 1095 388 1113 q 341 1044 341 1077 q 360 995 341 1015 q 406 974 378 974 q 467 992 443 974 q 492 1044 492 1010 q 472 1093 492 1072 q 424 1113 452 1113 m 558 1044 q 516 953 558 989 q 418 917 475 917 q 316 952 358 917 q 274 1044 274 988 q 316 1135 274 1101 q 417 1170 357 1170 q 517 1135 475 1170 q 558 1044 558 1100 m 481 910 l 742 0 l 625 0 l 540 301 l 293 301 l 208 0 l 92 0 l 351 910 l 481 910 m 317 381 l 515 381 l 418 795 l 317 381 z "},"Æ":{"ha":833,"x_min":50,"x_max":686,"o":"m 491 418 l 491 89 l 686 89 l 677 0 l 389 0 l 389 301 l 245 301 l 160 0 l 50 0 l 322 910 l 666 910 l 656 821 l 491 821 l 491 515 l 636 515 l 636 418 l 491 418 m 389 825 l 269 381 l 389 381 l 389 825 z "},"Ç":{"ha":833,"x_min":121,"x_max":710,"o":"m 418 -224 q 496 -177 496 -224 q 421 -130 496 -130 q 376 -132 408 -130 l 397 -6 l 463 -6 l 450 -77 l 456 -77 q 554 -100 517 -77 q 591 -176 591 -124 q 426 -279 591 -279 q 311 -264 379 -279 l 316 -209 q 418 -224 381 -224 m 710 837 l 649 769 q 576 816 614 800 q 488 832 538 832 q 353 779 410 832 q 268 642 296 726 q 241 456 241 558 q 269 266 241 351 q 352 131 296 182 q 481 79 407 79 q 650 145 577 79 l 710 74 q 473 -15 618 -15 q 291 46 372 -15 q 165 215 210 107 q 121 458 121 323 q 148 651 121 563 q 224 799 176 739 q 339 892 272 859 q 483 925 406 925 q 710 837 625 925 z "},"È":{"ha":833,"x_min":117,"x_max":707,"o":"m 261 1266 l 433 1000 l 349 1000 l 117 1266 l 261 1266 m 294 418 l 294 89 l 707 89 l 698 0 l 179 0 l 179 910 l 686 910 l 677 821 l 294 821 l 294 515 l 656 515 l 656 418 l 294 418 z "},"É":{"ha":833,"x_min":179,"x_max":707,"o":"m 348 1000 l 507 1266 l 649 1266 l 435 1000 l 348 1000 m 294 418 l 294 89 l 707 89 l 698 0 l 179 0 l 179 910 l 686 910 l 677 821 l 294 821 l 294 515 l 656 515 l 656 418 l 294 418 z "},"Ê":{"ha":833,"x_min":179,"x_max":707,"o":"m 442 1213 l 600 1000 l 513 1000 l 389 1143 l 265 1000 l 182 1000 l 340 1213 l 442 1213 m 294 418 l 294 89 l 707 89 l 698 0 l 179 0 l 179 910 l 686 910 l 677 821 l 294 821 l 294 515 l 656 515 l 656 418 l 294 418 z "},"Ë":{"ha":833,"x_min":179,"x_max":707,"o":"m 184 1116 l 296 1116 l 296 1004 l 184 1004 l 184 1116 m 449 1004 l 449 1116 l 560 1116 l 560 1004 l 449 1004 m 294 418 l 294 89 l 707 89 l 698 0 l 179 0 l 179 910 l 686 910 l 677 821 l 294 821 l 294 515 l 656 515 l 656 418 l 294 418 z "},"Ì":{"ha":833,"x_min":142,"x_max":673,"o":"m 286 1266 l 458 1000 l 374 1000 l 142 1266 l 286 1266 m 160 821 l 160 910 l 673 910 l 673 821 l 471 821 l 471 89 l 673 89 l 673 0 l 160 0 l 160 89 l 357 89 l 357 821 l 160 821 z "},"Í":{"ha":833,"x_min":160,"x_max":674,"o":"m 373 1000 l 532 1266 l 674 1266 l 460 1000 l 373 1000 m 160 821 l 160 910 l 673 910 l 673 821 l 471 821 l 471 89 l 673 89 l 673 0 l 160 0 l 160 89 l 357 89 l 357 821 l 160 821 z "},"Î":{"ha":833,"x_min":160,"x_max":673,"o":"m 467 1213 l 625 1000 l 538 1000 l 414 1143 l 290 1000 l 208 1000 l 366 1213 l 467 1213 m 160 821 l 160 910 l 673 910 l 673 821 l 471 821 l 471 89 l 673 89 l 673 0 l 160 0 l 160 89 l 357 89 l 357 821 l 160 821 z "},"Ï":{"ha":833,"x_min":160,"x_max":673,"o":"m 210 1116 l 322 1116 l 322 1004 l 210 1004 l 210 1116 m 475 1004 l 475 1116 l 586 1116 l 586 1004 l 475 1004 m 160 821 l 160 910 l 673 910 l 673 821 l 471 821 l 471 89 l 673 89 l 673 0 l 160 0 l 160 89 l 357 89 l 357 821 l 160 821 z "},"Ð":{"ha":833,"x_min":55,"x_max":675,"o":"m 229 89 q 389 111 325 89 q 490 179 453 133 q 541 289 526 226 q 556 442 556 351 q 547 570 556 515 q 516 674 538 626 q 458 754 494 723 q 364 803 421 785 q 230 821 307 821 l 218 821 l 218 517 l 387 517 l 387 436 l 218 436 l 218 89 l 229 89 m 55 436 l 55 517 l 104 517 l 104 910 l 239 910 q 565 787 455 910 q 675 442 675 663 q 567 111 675 221 q 231 0 458 0 l 104 0 l 104 436 l 55 436 z "},"Ñ":{"ha":833,"x_min":134,"x_max":700,"o":"m 655 1150 q 618 1041 652 1083 q 519 1000 584 1000 q 463 1010 490 1000 q 418 1035 436 1021 q 373 1059 399 1048 q 317 1070 346 1070 q 261 1008 263 1070 l 178 1008 q 216 1118 179 1078 q 320 1158 252 1158 q 376 1146 349 1158 q 421 1122 404 1135 q 466 1098 439 1109 q 522 1086 493 1086 q 571 1150 566 1086 l 655 1150 m 700 0 l 566 0 l 237 736 l 237 0 l 134 0 l 134 910 l 264 910 l 598 176 l 598 910 l 700 910 l 700 0 z "},"Ò":{"ha":833,"x_min":117,"x_max":716,"o":"m 286 1266 l 458 1000 l 374 1000 l 142 1266 l 286 1266 m 417 -15 q 307 10 357 -15 q 222 79 257 35 q 163 182 187 122 q 129 311 140 242 q 117 456 117 379 q 126 593 117 528 q 158 720 136 659 q 213 826 180 782 q 299 898 247 871 q 417 925 351 925 q 535 898 483 925 q 621 826 587 871 q 676 720 654 782 q 707 593 698 659 q 716 456 716 528 q 698 276 716 359 q 645 127 680 193 q 551 23 609 61 q 417 -15 492 -15 m 517 781 q 496 807 517 781 q 417 832 475 832 q 317 781 359 832 q 256 646 276 730 q 237 455 237 562 q 256 264 237 348 q 318 130 276 180 q 417 79 359 79 q 516 130 475 79 q 577 264 557 180 q 597 455 597 348 q 577 646 597 562 q 517 781 558 730 z "},"Ó":{"ha":833,"x_min":117,"x_max":716,"o":"m 373 1000 l 532 1266 l 674 1266 l 460 1000 l 373 1000 m 417 -15 q 307 10 357 -15 q 222 79 257 35 q 163 182 187 122 q 129 311 140 242 q 117 456 117 379 q 126 593 117 528 q 158 720 136 659 q 213 826 180 782 q 299 898 247 871 q 417 925 351 925 q 535 898 483 925 q 621 826 587 871 q 676 720 654 782 q 707 593 698 659 q 716 456 716 528 q 698 276 716 359 q 645 127 680 193 q 551 23 609 61 q 417 -15 492 -15 m 517 781 q 496 807 517 781 q 417 832 475 832 q 317 781 359 832 q 256 646 276 730 q 237 455 237 562 q 256 264 237 348 q 318 130 276 180 q 417 79 359 79 q 516 130 475 79 q 577 264 557 180 q 597 455 597 348 q 577 646 597 562 q 517 781 558 730 z "},"Ô":{"ha":833,"x_min":117,"x_max":716,"o":"m 467 1213 l 625 1000 l 538 1000 l 414 1143 l 290 1000 l 208 1000 l 366 1213 l 467 1213 m 417 -15 q 307 10 357 -15 q 222 79 257 35 q 163 182 187 122 q 129 311 140 242 q 117 456 117 379 q 126 593 117 528 q 158 720 136 659 q 213 826 180 782 q 299 898 247 871 q 417 925 351 925 q 535 898 483 925 q 621 826 587 871 q 676 720 654 782 q 707 593 698 659 q 716 456 716 528 q 698 276 716 359 q 645 127 680 193 q 551 23 609 61 q 417 -15 492 -15 m 517 781 q 496 807 517 781 q 417 832 475 832 q 317 781 359 832 q 256 646 276 730 q 237 455 237 562 q 256 264 237 348 q 318 130 276 180 q 417 79 359 79 q 516 130 475 79 q 577 264 557 180 q 597 455 597 348 q 577 646 597 562 q 517 781 558 730 z "},"Õ":{"ha":833,"x_min":117,"x_max":716,"o":"m 655 1150 q 618 1041 652 1083 q 519 1000 584 1000 q 463 1010 490 1000 q 418 1035 436 1021 q 373 1059 399 1048 q 317 1070 346 1070 q 261 1008 263 1070 l 178 1008 q 216 1118 179 1078 q 320 1158 252 1158 q 376 1146 349 1158 q 421 1122 404 1135 q 466 1098 439 1109 q 522 1086 493 1086 q 571 1150 566 1086 l 655 1150 m 417 -15 q 307 10 357 -15 q 222 79 257 35 q 163 182 187 122 q 129 311 140 242 q 117 456 117 379 q 126 593 117 528 q 158 720 136 659 q 213 826 180 782 q 299 898 247 871 q 417 925 351 925 q 535 898 483 925 q 621 826 587 871 q 676 720 654 782 q 707 593 698 659 q 716 456 716 528 q 698 276 716 359 q 645 127 680 193 q 551 23 609 61 q 417 -15 492 -15 m 517 781 q 496 807 517 781 q 417 832 475 832 q 317 781 359 832 q 256 646 276 730 q 237 455 237 562 q 256 264 237 348 q 318 130 276 180 q 417 79 359 79 q 516 130 475 79 q 577 264 557 180 q 597 455 597 348 q 577 646 597 562 q 517 781 558 730 z "},"Ö":{"ha":833,"x_min":117,"x_max":716,"o":"m 210 1116 l 323 1116 l 323 1004 l 210 1004 l 210 1116 m 475 1004 l 475 1116 l 587 1116 l 587 1004 l 475 1004 m 417 -15 q 307 10 357 -15 q 222 79 257 35 q 163 182 187 122 q 129 311 140 242 q 117 456 117 379 q 126 593 117 528 q 158 720 136 659 q 213 826 180 782 q 299 898 247 871 q 417 925 351 925 q 535 898 483 925 q 621 826 587 871 q 676 720 654 782 q 707 593 698 659 q 716 456 716 528 q 698 276 716 359 q 645 127 680 193 q 551 23 609 61 q 417 -15 492 -15 m 517 781 q 496 807 517 781 q 417 832 475 832 q 317 781 359 832 q 256 646 276 730 q 237 455 237 562 q 256 264 237 348 q 318 130 276 180 q 417 79 359 79 q 516 130 475 79 q 577 264 557 180 q 597 455 597 348 q 577 646 597 562 q 517 781 558 730 z "},"×":{"ha":833,"x_min":116,"x_max":657,"o":"m 657 171 l 587 102 l 387 298 l 186 102 l 116 170 l 316 368 l 116 564 l 186 632 l 387 435 l 587 632 l 657 564 l 456 368 l 657 171 z "},"Ø":{"ha":833,"x_min":75,"x_max":674,"o":"m 283 124 q 375 83 322 83 q 474 133 433 83 q 535 265 515 182 q 555 455 555 348 q 524 685 555 591 l 283 124 m 172 -136 l 89 -104 l 172 88 q 100 249 124 153 q 75 456 75 345 q 84 593 75 528 q 116 720 94 659 q 171 826 138 782 q 257 898 205 871 q 375 925 309 925 q 514 887 455 925 l 583 1048 l 669 1023 l 583 821 q 674 456 674 697 q 656 276 674 359 q 603 127 638 193 q 509 23 567 61 q 375 -15 450 -15 q 240 24 298 -15 l 172 -136 m 375 827 q 275 778 317 827 q 214 645 234 728 q 195 455 195 562 q 229 220 195 319 l 470 784 q 375 827 430 827 z "},"Ù":{"ha":833,"x_min":121,"x_max":713,"o":"m 286 1266 l 458 1000 l 374 1000 l 142 1266 l 286 1266 m 643 59 q 608 22 643 59 q 417 -15 574 -15 q 191 59 260 -15 q 121 296 121 132 l 121 910 l 235 910 l 235 299 q 273 132 235 184 q 417 79 312 79 q 561 132 522 79 q 599 299 599 184 l 599 910 l 713 910 l 713 296 q 643 59 713 132 z "},"Ú":{"ha":833,"x_min":121,"x_max":713,"o":"m 373 1000 l 532 1266 l 674 1266 l 460 1000 l 373 1000 m 643 59 q 608 22 643 59 q 417 -15 574 -15 q 191 59 260 -15 q 121 296 121 132 l 121 910 l 235 910 l 235 299 q 273 132 235 184 q 417 79 312 79 q 561 132 522 79 q 599 299 599 184 l 599 910 l 713 910 l 713 296 q 643 59 713 132 z "},"Û":{"ha":833,"x_min":121,"x_max":713,"o":"m 467 1213 l 625 1000 l 538 1000 l 414 1143 l 290 1000 l 208 1000 l 366 1213 l 467 1213 m 643 59 q 608 22 643 59 q 417 -15 574 -15 q 191 59 260 -15 q 121 296 121 132 l 121 910 l 235 910 l 235 299 q 273 132 235 184 q 417 79 312 79 q 561 132 522 79 q 599 299 599 184 l 599 910 l 713 910 l 713 296 q 643 59 713 132 z "},"Ü":{"ha":833,"x_min":121,"x_max":713,"o":"m 210 1116 l 323 1116 l 323 1004 l 210 1004 l 210 1116 m 475 1004 l 475 1116 l 587 1116 l 587 1004 l 475 1004 m 643 59 q 608 22 643 59 q 417 -15 574 -15 q 191 59 260 -15 q 121 296 121 132 l 121 910 l 235 910 l 235 299 q 273 132 235 184 q 417 79 312 79 q 561 132 522 79 q 599 299 599 184 l 599 910 l 713 910 l 713 296 q 643 59 713 132 z "},"Ý":{"ha":833,"x_min":83,"x_max":750,"o":"m 373 1000 l 532 1266 l 674 1266 l 460 1000 l 373 1000 m 471 0 l 357 0 l 357 362 l 84 910 l 210 910 l 414 473 l 621 910 l 750 910 l 471 362 l 471 0 z "},"Þ":{"ha":833,"x_min":157,"x_max":672,"o":"m 672 498 q 578 276 672 340 q 273 212 484 212 l 273 0 l 157 0 l 157 965 l 273 965 l 273 787 q 579 720 486 787 q 672 498 672 652 m 566 499 q 551 583 566 548 q 512 639 536 618 q 448 671 488 659 q 369 686 408 682 q 273 690 329 690 l 273 311 q 343 312 313 311 q 406 319 374 314 q 460 332 437 323 q 504 354 483 340 q 538 388 525 368 q 558 436 551 408 q 566 499 566 464 z "},"ß":{"ha":833,"x_min":142,"x_max":669,"o":"m 515 699 q 483 800 515 761 q 390 838 450 838 q 328 823 354 838 q 288 786 302 808 q 266 729 274 764 q 255 663 258 694 q 253 590 253 632 l 253 0 l 142 0 l 142 594 q 154 727 142 669 q 193 831 165 785 q 270 901 220 877 q 389 925 319 925 q 558 865 499 925 q 618 703 618 804 q 573 564 618 624 q 449 479 529 504 q 533 433 491 453 q 633 337 597 403 q 669 198 669 272 q 656 120 669 157 q 619 53 644 83 q 552 6 594 23 q 458 -12 511 -12 q 326 18 396 -12 l 326 100 q 450 64 400 64 q 536 105 505 64 q 568 203 568 146 q 542 300 568 255 q 467 368 515 346 q 445 378 461 371 q 422 388 429 385 q 403 398 416 391 q 383 410 389 406 q 368 423 377 415 q 355 438 359 431 q 348 454 351 445 q 345 474 345 464 q 355 508 345 493 q 379 531 366 524 q 411 550 391 539 q 439 567 431 561 q 497 624 479 595 q 515 699 515 652 z "},"à":{"ha":833,"x_min":110,"x_max":652,"o":"m 254 1031 l 427 764 l 342 764 l 110 1031 l 254 1031 m 136 171 q 150 256 136 219 q 191 317 165 293 q 254 357 216 342 q 336 379 292 373 q 435 386 380 386 l 543 385 l 543 442 q 504 565 543 527 q 390 602 465 602 q 202 568 319 602 l 177 648 q 399 689 296 689 q 479 682 442 689 q 548 657 515 674 q 603 613 580 640 q 638 547 625 587 q 652 456 652 507 l 652 0 l 562 0 l 547 73 q 462 8 517 32 q 345 -15 407 -15 q 268 -4 304 -15 q 201 29 231 7 q 153 87 171 51 q 136 171 136 124 m 543 152 l 543 314 l 439 313 q 368 306 401 313 q 305 284 334 299 q 259 241 276 269 q 243 176 243 214 q 273 91 243 118 q 353 64 303 64 q 462 91 406 64 q 543 152 519 118 z "},"á":{"ha":833,"x_min":136,"x_max":652,"o":"m 341 764 l 500 1031 l 642 1031 l 428 764 l 341 764 m 136 171 q 150 256 136 219 q 191 317 165 293 q 254 357 216 342 q 336 379 292 373 q 435 386 380 386 l 543 385 l 543 442 q 504 565 543 527 q 390 602 465 602 q 202 568 319 602 l 177 648 q 399 689 296 689 q 479 682 442 689 q 548 657 515 674 q 603 613 580 640 q 638 547 625 587 q 652 456 652 507 l 652 0 l 562 0 l 547 73 q 462 8 517 32 q 345 -15 407 -15 q 268 -4 304 -15 q 201 29 231 7 q 153 87 171 51 q 136 171 136 124 m 543 152 l 543 314 l 439 313 q 368 306 401 313 q 305 284 334 299 q 259 241 276 269 q 243 176 243 214 q 273 91 243 118 q 353 64 303 64 q 462 91 406 64 q 543 152 519 118 z "},"â":{"ha":833,"x_min":136,"x_max":652,"o":"m 411 977 l 569 764 l 481 764 l 357 907 l 234 764 l 151 764 l 309 977 l 411 977 m 136 171 q 150 256 136 219 q 191 317 165 293 q 254 357 216 342 q 336 379 292 373 q 435 386 380 386 l 543 385 l 543 442 q 504 565 543 527 q 390 602 465 602 q 202 568 319 602 l 177 648 q 399 689 296 689 q 479 682 442 689 q 548 657 515 674 q 603 613 580 640 q 638 547 625 587 q 652 456 652 507 l 652 0 l 562 0 l 547 73 q 462 8 517 32 q 345 -15 407 -15 q 268 -4 304 -15 q 201 29 231 7 q 153 87 171 51 q 136 171 136 124 m 543 152 l 543 314 l 439 313 q 368 306 401 313 q 305 284 334 299 q 259 241 276 269 q 243 176 243 214 q 273 91 243 118 q 353 64 303 64 q 462 91 406 64 q 543 152 519 118 z "},"ã":{"ha":833,"x_min":121,"x_max":652,"o":"m 599 915 q 562 806 595 848 q 463 764 528 764 q 407 775 434 764 q 361 800 380 786 q 316 824 343 813 q 261 835 290 835 q 205 773 207 835 l 121 773 q 159 882 123 842 q 264 922 196 922 q 320 911 293 922 q 365 887 347 900 q 410 862 383 873 q 465 851 437 851 q 515 915 509 851 l 599 915 m 136 171 q 150 256 136 219 q 191 317 165 293 q 254 357 216 342 q 336 379 292 373 q 435 386 380 386 l 543 385 l 543 442 q 504 565 543 527 q 390 602 465 602 q 202 568 319 602 l 177 648 q 399 689 296 689 q 479 682 442 689 q 548 657 515 674 q 603 613 580 640 q 638 547 625 587 q 652 456 652 507 l 652 0 l 562 0 l 547 73 q 462 8 517 32 q 345 -15 407 -15 q 268 -4 304 -15 q 201 29 231 7 q 153 87 171 51 q 136 171 136 124 m 543 152 l 543 314 l 439 313 q 368 306 401 313 q 305 284 334 299 q 259 241 276 269 q 243 176 243 214 q 273 91 243 118 q 353 64 303 64 q 462 91 406 64 q 543 152 519 118 z "},"ä":{"ha":833,"x_min":136,"x_max":652,"o":"m 172 876 l 284 876 l 284 764 l 172 764 l 172 876 m 437 764 l 437 876 l 548 876 l 548 764 l 437 764 m 136 171 q 150 256 136 219 q 191 317 165 293 q 254 357 216 342 q 336 379 292 373 q 435 386 380 386 l 543 385 l 543 442 q 504 565 543 527 q 390 602 465 602 q 202 568 319 602 l 177 648 q 399 689 296 689 q 479 682 442 689 q 548 657 515 674 q 603 613 580 640 q 638 547 625 587 q 652 456 652 507 l 652 0 l 562 0 l 547 73 q 462 8 517 32 q 345 -15 407 -15 q 268 -4 304 -15 q 201 29 231 7 q 153 87 171 51 q 136 171 136 124 m 543 152 l 543 314 l 439 313 q 368 306 401 313 q 305 284 334 299 q 259 241 276 269 q 243 176 243 214 q 273 91 243 118 q 353 64 303 64 q 462 91 406 64 q 543 152 519 118 z "},"å":{"ha":833,"x_min":136,"x_max":652,"o":"m 368 960 q 308 942 332 960 q 285 890 285 924 q 303 841 285 862 q 350 821 322 821 q 411 839 387 821 q 435 891 435 857 q 415 939 435 919 q 368 960 395 960 m 502 891 q 460 800 502 836 q 361 764 418 764 q 260 799 302 764 q 218 891 218 835 q 259 982 218 947 q 361 1017 301 1017 q 460 982 419 1017 q 502 891 502 947 m 136 171 q 150 256 136 219 q 191 317 165 293 q 254 357 216 342 q 336 379 292 373 q 435 386 380 386 l 543 385 l 543 442 q 504 565 543 527 q 390 602 465 602 q 202 568 319 602 l 177 648 q 399 689 296 689 q 479 682 442 689 q 548 657 515 674 q 603 613 580 640 q 638 547 625 587 q 652 456 652 507 l 652 0 l 562 0 l 547 73 q 462 8 517 32 q 345 -15 407 -15 q 268 -4 304 -15 q 201 29 231 7 q 153 87 171 51 q 136 171 136 124 m 543 152 l 543 314 l 439 313 q 368 306 401 313 q 305 284 334 299 q 259 241 276 269 q 243 176 243 214 q 273 91 243 118 q 353 64 303 64 q 462 91 406 64 q 543 152 519 118 z "},"æ":{"ha":833,"x_min":34,"x_max":714,"o":"m 701 29 q 566 -14 642 -14 q 472 5 517 -14 q 393 64 427 25 q 311 8 360 31 q 210 -15 262 -15 q 86 37 138 -15 q 34 171 34 88 q 42 237 34 208 q 64 287 51 267 q 100 321 77 307 q 145 345 123 336 q 201 359 168 353 q 261 367 234 364 q 328 370 288 369 l 328 479 q 300 571 328 538 q 222 604 273 604 q 88 577 153 604 l 62 655 q 231 690 143 690 q 388 570 364 690 q 450 660 410 631 q 537 690 490 690 q 668 600 621 690 q 714 369 714 511 l 713 317 l 429 305 q 465 127 433 189 q 565 66 496 66 q 670 92 608 66 l 701 29 m 215 71 q 259 77 237 71 q 293 89 281 83 q 330 110 304 95 q 362 128 355 124 q 332 303 342 183 q 218 289 242 295 q 131 216 146 272 q 127 180 127 200 q 152 101 127 132 q 215 71 176 71 m 626 387 q 537 604 614 604 q 481 568 505 604 q 447 483 458 532 q 433 376 435 433 l 626 387 z "},"ç":{"ha":833,"x_min":126,"x_max":633,"o":"m 431 -224 q 509 -177 509 -224 q 434 -130 509 -130 q 389 -132 421 -130 l 410 -6 l 475 -6 l 463 -77 l 469 -77 q 567 -100 530 -77 q 604 -176 604 -124 q 439 -279 604 -279 q 323 -264 392 -279 l 329 -209 q 431 -224 394 -224 m 633 44 q 552 0 602 15 q 450 -15 503 -15 q 337 4 389 -15 q 246 56 284 23 q 180 134 208 90 q 140 231 153 178 q 126 339 126 283 q 164 512 126 433 q 277 641 203 591 q 448 690 352 690 q 551 673 504 690 q 629 632 599 657 l 583 564 q 450 604 525 604 q 297 529 356 604 q 239 336 239 454 q 297 145 239 219 q 455 71 355 71 q 589 113 530 71 l 633 44 z "},"è":{"ha":833,"x_min":126,"x_max":663,"o":"m 285 1031 l 457 764 l 372 764 l 140 1031 l 285 1031 m 556 399 q 412 604 544 604 q 337 588 369 604 q 286 542 305 572 q 257 477 267 511 q 242 399 247 443 l 556 399 m 126 339 q 157 515 126 436 q 251 642 189 594 q 397 690 314 690 q 515 664 464 690 q 598 591 567 637 q 646 484 630 544 q 663 355 663 425 l 663 317 l 238 317 q 261 194 241 248 q 327 105 281 140 q 436 71 372 71 q 600 130 530 71 l 649 68 q 556 7 606 28 q 433 -15 505 -15 q 264 32 334 -15 q 160 158 194 79 q 126 339 126 237 z "},"é":{"ha":833,"x_min":126,"x_max":673,"o":"m 372 764 l 531 1031 l 673 1031 l 458 764 l 372 764 m 556 399 q 412 604 544 604 q 337 588 369 604 q 286 542 305 572 q 257 477 267 511 q 242 399 247 443 l 556 399 m 126 339 q 157 515 126 436 q 251 642 189 594 q 397 690 314 690 q 515 664 464 690 q 598 591 567 637 q 646 484 630 544 q 663 355 663 425 l 663 317 l 238 317 q 261 194 241 248 q 327 105 281 140 q 436 71 372 71 q 600 130 530 71 l 649 68 q 556 7 606 28 q 433 -15 505 -15 q 264 32 334 -15 q 160 158 194 79 q 126 339 126 237 z "},"ê":{"ha":833,"x_min":126,"x_max":663,"o":"m 442 978 l 600 764 l 513 764 l 389 908 l 265 764 l 182 764 l 340 978 l 442 978 m 556 399 q 412 604 544 604 q 337 588 369 604 q 286 542 305 572 q 257 477 267 511 q 242 399 247 443 l 556 399 m 126 339 q 157 515 126 436 q 251 642 189 594 q 397 690 314 690 q 515 664 464 690 q 598 591 567 637 q 646 484 630 544 q 663 355 663 425 l 663 317 l 238 317 q 261 194 241 248 q 327 105 281 140 q 436 71 372 71 q 600 130 530 71 l 649 68 q 556 7 606 28 q 433 -15 505 -15 q 264 32 334 -15 q 160 158 194 79 q 126 339 126 237 z "},"ë":{"ha":833,"x_min":126,"x_max":663,"o":"m 203 877 l 315 877 l 315 765 l 203 765 l 203 877 m 468 765 l 468 877 l 579 877 l 579 765 l 468 765 m 556 399 q 412 604 544 604 q 337 588 369 604 q 286 542 305 572 q 257 477 267 511 q 242 399 247 443 l 556 399 m 126 339 q 157 515 126 436 q 251 642 189 594 q 397 690 314 690 q 515 664 464 690 q 598 591 567 637 q 646 484 630 544 q 663 355 663 425 l 663 317 l 238 317 q 261 194 241 248 q 327 105 281 140 q 436 71 372 71 q 600 130 530 71 l 649 68 q 556 7 606 28 q 433 -15 505 -15 q 264 32 334 -15 q 160 158 194 79 q 126 339 126 237 z "},"ì":{"ha":833,"x_min":47,"x_max":723,"o":"m 192 1031 l 364 764 l 279 764 l 47 1031 l 192 1031 m 162 582 l 162 669 l 481 669 l 481 88 l 723 88 l 723 0 l 120 0 l 120 88 l 370 88 l 370 582 l 162 582 z "},"í":{"ha":833,"x_min":120,"x_max":723,"o":"m 278 764 l 437 1031 l 579 1031 l 365 764 l 278 764 m 162 582 l 162 669 l 481 669 l 481 88 l 723 88 l 723 0 l 120 0 l 120 88 l 370 88 l 370 582 l 162 582 z "},"î":{"ha":833,"x_min":120,"x_max":723,"o":"m 473 977 l 631 764 l 543 764 l 419 907 l 296 764 l 213 764 l 371 977 l 473 977 m 162 582 l 162 669 l 481 669 l 481 88 l 723 88 l 723 0 l 120 0 l 120 88 l 370 88 l 370 582 l 162 582 z "},"ï":{"ha":833,"x_min":120,"x_max":723,"o":"m 233 876 l 346 876 l 346 764 l 233 764 l 233 876 m 498 764 l 498 876 l 610 876 l 610 764 l 498 764 m 162 582 l 162 669 l 481 669 l 481 88 l 723 88 l 723 0 l 120 0 l 120 88 l 370 88 l 370 582 l 162 582 z "},"ð":{"ha":833,"x_min":74,"x_max":732,"o":"m 393 79 q 477 97 440 79 q 536 146 515 116 q 568 211 557 177 q 579 281 579 245 q 557 386 579 341 q 499 455 535 431 q 427 489 464 478 q 353 500 391 500 q 230 444 273 500 q 186 307 186 387 q 199 224 186 264 q 237 152 212 184 q 303 99 262 119 q 393 79 343 79 m 695 340 q 679 199 695 262 q 629 87 663 136 q 536 12 595 38 q 397 -15 477 -15 q 254 12 317 -15 q 152 83 191 39 q 94 182 114 127 q 74 297 74 237 q 93 409 74 355 q 145 505 111 463 q 234 574 180 548 q 353 600 288 600 q 475 574 418 600 q 570 498 532 549 q 526 615 563 553 q 427 734 488 676 l 177 646 l 147 720 l 355 793 q 161 895 267 857 l 214 988 q 474 835 372 918 l 702 915 l 732 841 l 539 773 q 695 340 695 606 z "},"ñ":{"ha":833,"x_min":143,"x_max":673,"o":"m 621 915 q 583 806 617 848 q 485 764 549 764 q 429 775 456 764 q 383 800 401 786 q 338 824 365 813 q 283 835 311 835 q 227 773 229 835 l 143 773 q 181 882 144 842 q 286 922 218 922 q 342 911 315 922 q 387 887 369 900 q 432 862 405 873 q 487 851 458 851 q 536 915 531 851 l 621 915 m 465 690 q 673 426 673 690 l 673 0 l 562 0 q 562 412 562 0 q 561 455 562 439 q 557 494 560 471 q 550 531 555 517 q 535 560 545 545 q 511 584 525 576 q 475 598 496 593 q 425 604 453 604 q 309 563 359 604 q 260 453 260 522 l 260 0 l 149 0 l 149 669 l 251 669 l 257 597 q 465 690 324 690 z "},"ò":{"ha":833,"x_min":126,"x_max":707,"o":"m 286 1031 l 458 764 l 373 764 l 141 1031 l 286 1031 m 415 690 q 545 663 488 690 q 636 589 602 637 q 689 479 671 542 q 707 340 707 416 q 629 82 707 180 q 415 -15 550 -15 q 287 13 343 -15 q 196 88 231 40 q 144 199 161 136 q 126 336 126 262 q 204 593 126 496 q 415 690 281 690 m 239 336 q 243 258 239 294 q 261 186 248 221 q 293 126 273 151 q 343 86 312 101 q 415 71 375 71 q 489 86 456 71 q 541 126 521 101 q 573 186 561 151 q 591 259 586 222 q 596 338 596 296 q 591 416 596 380 q 573 488 586 453 q 541 549 561 524 q 489 589 521 574 q 415 604 456 604 q 329 581 365 604 q 274 518 293 558 q 247 433 256 478 q 239 336 239 389 z "},"ó":{"ha":833,"x_min":126,"x_max":707,"o":"m 372 764 l 531 1031 l 673 1031 l 458 764 l 372 764 m 415 690 q 545 663 488 690 q 636 589 602 637 q 689 479 671 542 q 707 340 707 416 q 629 82 707 180 q 415 -15 550 -15 q 287 13 343 -15 q 196 88 231 40 q 144 199 161 136 q 126 336 126 262 q 204 593 126 496 q 415 690 281 690 m 239 336 q 243 258 239 294 q 261 186 248 221 q 293 126 273 151 q 343 86 312 101 q 415 71 375 71 q 489 86 456 71 q 541 126 521 101 q 573 186 561 151 q 591 259 586 222 q 596 338 596 296 q 591 416 596 380 q 573 488 586 453 q 541 549 561 524 q 489 589 521 574 q 415 604 456 604 q 329 581 365 604 q 274 518 293 558 q 247 433 256 478 q 239 336 239 389 z "},"ô":{"ha":833,"x_min":126,"x_max":707,"o":"m 468 977 l 626 764 l 538 764 l 414 907 l 291 764 l 208 764 l 366 977 l 468 977 m 415 690 q 545 663 488 690 q 636 589 602 637 q 689 479 671 542 q 707 340 707 416 q 629 82 707 180 q 415 -15 550 -15 q 287 13 343 -15 q 196 88 231 40 q 144 199 161 136 q 126 336 126 262 q 204 593 126 496 q 415 690 281 690 m 239 336 q 243 258 239 294 q 261 186 248 221 q 293 126 273 151 q 343 86 312 101 q 415 71 375 71 q 489 86 456 71 q 541 126 521 101 q 573 186 561 151 q 591 259 586 222 q 596 338 596 296 q 591 416 596 380 q 573 488 586 453 q 541 549 561 524 q 489 589 521 574 q 415 604 456 604 q 329 581 365 604 q 274 518 293 558 q 247 433 256 478 q 239 336 239 389 z "},"õ":{"ha":833,"x_min":126,"x_max":707,"o":"m 656 915 q 618 806 652 848 q 520 764 585 764 q 464 775 491 764 q 418 800 437 786 q 373 824 400 813 q 318 835 347 835 q 262 773 264 835 l 178 773 q 216 882 180 842 q 321 922 253 922 q 377 911 350 922 q 422 887 404 900 q 467 862 440 873 q 522 851 494 851 q 572 915 566 851 l 656 915 m 415 690 q 545 663 488 690 q 636 589 602 637 q 689 479 671 542 q 707 340 707 416 q 629 82 707 180 q 415 -15 550 -15 q 287 13 343 -15 q 196 88 231 40 q 144 199 161 136 q 126 336 126 262 q 204 593 126 496 q 415 690 281 690 m 239 336 q 243 258 239 294 q 261 186 248 221 q 293 126 273 151 q 343 86 312 101 q 415 71 375 71 q 489 86 456 71 q 541 126 521 101 q 573 186 561 151 q 591 259 586 222 q 596 338 596 296 q 591 416 596 380 q 573 488 586 453 q 541 549 561 524 q 489 589 521 574 q 415 604 456 604 q 329 581 365 604 q 274 518 293 558 q 247 433 256 478 q 239 336 239 389 z "},"ö":{"ha":833,"x_min":126,"x_max":707,"o":"m 229 876 l 341 876 l 341 764 l 229 764 l 229 876 m 494 764 l 494 876 l 605 876 l 605 764 l 494 764 m 415 690 q 545 663 488 690 q 636 589 602 637 q 689 479 671 542 q 707 340 707 416 q 629 82 707 180 q 415 -15 550 -15 q 287 13 343 -15 q 196 88 231 40 q 144 199 161 136 q 126 336 126 262 q 204 593 126 496 q 415 690 281 690 m 239 336 q 243 258 239 294 q 261 186 248 221 q 293 126 273 151 q 343 86 312 101 q 415 71 375 71 q 489 86 456 71 q 541 126 521 101 q 573 186 561 151 q 591 259 586 222 q 596 338 596 296 q 591 416 596 380 q 573 488 586 453 q 541 549 561 524 q 489 589 521 574 q 415 604 456 604 q 329 581 365 604 q 274 518 293 558 q 247 433 256 478 q 239 336 239 389 z "},"÷":{"ha":833,"x_min":83,"x_max":668,"o":"m 83 413 l 668 413 l 668 321 l 83 321 l 83 413 m 307 14 l 307 153 l 452 153 l 452 14 l 307 14 m 307 578 l 307 718 l 452 718 l 452 578 l 307 578 z "},"ø":{"ha":833,"x_min":84,"x_max":666,"o":"m 197 -173 l 137 -146 l 214 31 q 117 155 149 75 q 84 336 84 235 q 162 593 84 496 q 374 690 239 690 q 492 669 441 690 l 571 849 l 630 825 l 548 637 q 636 515 607 592 q 666 340 666 438 q 587 82 666 180 q 374 -15 509 -15 q 272 1 319 -15 l 197 -173 m 456 585 q 374 604 421 604 q 288 581 323 604 q 233 518 252 558 q 205 433 214 478 q 197 336 197 389 q 254 123 197 191 l 456 585 m 506 540 l 308 83 q 374 71 336 71 q 462 93 425 71 q 518 155 499 115 q 546 239 538 195 q 555 338 555 284 q 506 540 555 471 z "},"ù":{"ha":833,"x_min":136,"x_max":683,"o":"m 281 1031 l 453 764 l 368 764 l 136 1031 l 281 1031 m 683 298 l 683 670 l 572 670 l 572 295 q 571 243 572 262 q 567 198 570 224 q 558 155 564 171 q 542 121 553 139 q 515 93 531 103 q 475 77 499 83 q 421 71 452 71 q 363 77 389 71 q 321 93 338 83 q 293 121 304 103 q 275 155 281 139 q 266 198 269 171 q 262 243 263 224 q 262 295 262 262 l 262 670 l 151 670 l 151 298 q 212 58 151 132 q 421 -15 274 -15 q 623 59 564 -15 q 683 298 683 132 z "},"ú":{"ha":833,"x_min":151,"x_max":683,"o":"m 367 764 l 526 1031 l 668 1031 l 454 764 l 367 764 m 683 298 l 683 670 l 572 670 l 572 295 q 571 243 572 262 q 567 198 570 224 q 558 155 564 171 q 542 121 553 139 q 515 93 531 103 q 475 77 499 83 q 421 71 452 71 q 363 77 389 71 q 321 93 338 83 q 293 121 304 103 q 275 155 281 139 q 266 198 269 171 q 262 243 263 224 q 262 295 262 262 l 262 670 l 151 670 l 151 298 q 212 58 151 132 q 421 -15 274 -15 q 623 59 564 -15 q 683 298 683 132 z "},"û":{"ha":833,"x_min":151,"x_max":683,"o":"m 462 977 l 620 764 l 532 764 l 408 907 l 285 764 l 202 764 l 360 977 l 462 977 m 683 298 l 683 670 l 572 670 l 572 295 q 571 243 572 262 q 567 198 570 224 q 558 155 564 171 q 542 121 553 139 q 515 93 531 103 q 475 77 499 83 q 421 71 452 71 q 363 77 389 71 q 321 93 338 83 q 293 121 304 103 q 275 155 281 139 q 266 198 269 171 q 262 243 263 224 q 262 295 262 262 l 262 670 l 151 670 l 151 298 q 212 58 151 132 q 421 -15 274 -15 q 623 59 564 -15 q 683 298 683 132 z "},"ü":{"ha":833,"x_min":151,"x_max":683,"o":"m 222 876 l 335 876 l 335 764 l 222 764 l 222 876 m 488 764 l 488 876 l 599 876 l 599 764 l 488 764 m 683 298 l 683 670 l 572 670 l 572 295 q 571 243 572 262 q 567 198 570 224 q 558 155 564 171 q 542 121 553 139 q 515 93 531 103 q 475 77 499 83 q 421 71 452 71 q 363 77 389 71 q 321 93 338 83 q 293 121 304 103 q 275 155 281 139 q 266 198 269 171 q 262 243 263 224 q 262 295 262 262 l 262 670 l 151 670 l 151 298 q 212 58 151 132 q 421 -15 274 -15 q 623 59 564 -15 q 683 298 683 132 z "},"ý":{"ha":833,"x_min":96,"x_max":739,"o":"m 332 764 l 491 1031 l 633 1031 l 418 764 l 332 764 m 283 -248 l 379 -5 l 96 669 l 212 669 l 433 117 l 627 669 l 739 669 q 495 20 555 165 l 380 -281 l 283 -248 z "},"þ":{"ha":833,"x_min":107,"x_max":699,"o":"m 425 -13 q 347 -3 382 -13 q 287 25 311 7 q 248 60 263 43 q 219 101 233 78 l 219 -283 l 107 -283 l 107 964 l 220 964 l 220 572 q 314 660 258 630 q 426 690 369 690 q 531 669 483 690 q 618 608 580 648 q 677 501 656 568 q 699 349 699 435 l 698 349 q 676 184 698 256 q 617 71 655 113 q 531 8 579 28 q 425 -13 483 -13 m 416 615 q 274 538 329 615 q 218 327 218 460 q 275 135 218 208 q 406 62 332 62 q 532 137 487 62 q 577 345 577 212 q 534 543 577 471 q 416 615 492 615 z "},"ÿ":{"ha":833,"x_min":96,"x_max":739,"o":"m 187 876 l 300 876 l 300 764 l 187 764 l 187 876 m 452 764 l 452 876 l 564 876 l 564 764 l 452 764 m 283 -248 l 379 -5 l 96 669 l 212 669 l 433 117 l 627 669 l 739 669 q 495 20 555 165 l 380 -281 l 283 -248 z "},"Ă":{"ha":833,"x_min":92,"x_max":742,"o":"m 309 1156 q 340 1090 318 1110 q 412 1070 362 1070 q 488 1091 463 1070 q 524 1156 513 1112 l 583 1156 q 539 1039 578 1077 q 418 1000 500 1000 q 295 1037 334 1000 q 250 1156 257 1074 l 309 1156 m 481 910 l 742 0 l 625 0 l 540 301 l 293 301 l 208 0 l 92 0 l 351 910 l 481 910 m 317 381 l 515 381 l 418 795 l 317 381 z "},"ă":{"ha":833,"x_min":136,"x_max":652,"o":"m 253 920 q 284 854 262 874 q 356 834 306 834 q 431 855 406 834 q 468 920 456 876 l 527 920 q 483 803 522 841 q 361 764 444 764 q 239 801 277 764 q 193 920 201 838 l 253 920 m 136 171 q 150 256 136 219 q 191 317 165 293 q 254 357 216 342 q 336 379 292 373 q 435 386 380 386 l 543 385 l 543 442 q 504 565 543 527 q 390 602 465 602 q 202 568 319 602 l 177 648 q 399 689 296 689 q 479 682 442 689 q 548 657 515 674 q 603 613 580 640 q 638 547 625 587 q 652 456 652 507 l 652 0 l 562 0 l 547 73 q 462 8 517 32 q 345 -15 407 -15 q 268 -4 304 -15 q 201 29 231 7 q 153 87 171 51 q 136 171 136 124 m 543 152 l 543 314 l 439 313 q 368 306 401 313 q 305 284 334 299 q 259 241 276 269 q 243 176 243 214 q 273 91 243 118 q 353 64 303 64 q 462 91 406 64 q 543 152 519 118 z "},"Ą":{"ha":833,"x_min":92,"x_max":760,"o":"m 494 -149 q 508 -93 494 -119 q 546 -48 521 -68 q 591 -17 571 -28 q 640 8 611 -5 l 727 8 q 682 -19 700 -7 q 639 -50 664 -31 q 602 -90 614 -69 q 589 -130 589 -110 q 611 -173 589 -159 q 668 -186 634 -186 q 760 -165 704 -186 l 760 -239 q 661 -259 713 -259 q 494 -149 494 -259 m 481 910 l 742 0 l 625 0 l 540 301 l 293 301 l 208 0 l 92 0 l 351 910 l 481 910 m 317 381 l 515 381 l 418 795 l 317 381 z "},"ą":{"ha":833,"x_min":136,"x_max":659,"o":"m 393 -149 q 407 -93 393 -119 q 445 -48 420 -68 q 490 -17 470 -28 q 539 8 510 -5 l 626 8 q 581 -19 599 -7 q 538 -50 563 -31 q 500 -90 513 -69 q 488 -130 488 -110 q 510 -173 488 -159 q 567 -186 533 -186 q 659 -165 603 -186 l 659 -239 q 559 -259 612 -259 q 393 -149 393 -259 m 136 171 q 150 256 136 219 q 191 317 165 293 q 254 357 216 342 q 336 379 292 373 q 435 386 380 386 l 543 385 l 543 442 q 504 565 543 527 q 390 602 465 602 q 202 568 319 602 l 177 648 q 399 689 296 689 q 479 682 442 689 q 548 657 515 674 q 603 613 580 640 q 638 547 625 587 q 652 456 652 507 l 652 0 l 562 0 l 547 73 q 462 8 517 32 q 345 -15 407 -15 q 268 -4 304 -15 q 201 29 231 7 q 153 87 171 51 q 136 171 136 124 m 543 152 l 543 314 l 439 313 q 368 306 401 313 q 305 284 334 299 q 259 241 276 269 q 243 176 243 214 q 273 91 243 118 q 353 64 303 64 q 462 91 406 64 q 543 152 519 118 z "},"Ć":{"ha":833,"x_min":121,"x_max":710,"o":"m 396 1000 l 555 1266 l 697 1266 l 483 1000 l 396 1000 m 710 837 l 649 769 q 576 816 614 800 q 488 832 538 832 q 353 779 410 832 q 268 642 296 726 q 241 456 241 558 q 269 266 241 351 q 352 131 296 182 q 481 79 407 79 q 650 145 577 79 l 710 74 q 473 -15 618 -15 q 291 46 372 -15 q 165 215 210 107 q 121 458 121 323 q 148 651 121 563 q 224 799 176 739 q 339 892 272 859 q 483 925 406 925 q 710 837 625 925 z "},"ć":{"ha":833,"x_min":126,"x_max":633,"o":"m 324 764 l 484 1031 l 625 1031 l 411 764 l 324 764 m 633 44 q 552 0 602 15 q 450 -15 503 -15 q 337 4 389 -15 q 246 56 284 23 q 180 134 208 90 q 140 231 153 178 q 126 339 126 283 q 164 512 126 433 q 277 641 203 591 q 448 690 352 690 q 551 673 504 690 q 629 632 599 657 l 583 564 q 450 604 525 604 q 297 529 356 604 q 239 336 239 454 q 297 145 239 219 q 455 71 355 71 q 589 113 530 71 l 633 44 z "},"Č":{"ha":833,"x_min":121,"x_max":710,"o":"m 321 1213 l 436 1069 l 552 1213 l 656 1213 l 490 1000 l 389 1000 l 223 1213 l 321 1213 m 710 837 l 649 769 q 576 816 614 800 q 488 832 538 832 q 353 779 410 832 q 268 642 296 726 q 241 456 241 558 q 269 266 241 351 q 352 131 296 182 q 481 79 407 79 q 650 145 577 79 l 710 74 q 473 -15 618 -15 q 291 46 372 -15 q 165 215 210 107 q 121 458 121 323 q 148 651 121 563 q 224 799 176 739 q 339 892 272 859 q 483 925 406 925 q 710 837 625 925 z "},"č":{"ha":833,"x_min":126,"x_max":658,"o":"m 323 977 l 437 833 l 553 977 l 658 977 l 491 764 l 391 764 l 224 977 l 323 977 m 633 44 q 552 0 602 15 q 450 -15 503 -15 q 337 4 389 -15 q 246 56 284 23 q 180 134 208 90 q 140 231 153 178 q 126 339 126 283 q 164 512 126 433 q 277 641 203 591 q 448 690 352 690 q 551 673 504 690 q 629 632 599 657 l 583 564 q 450 604 525 604 q 297 529 356 604 q 239 336 239 454 q 297 145 239 219 q 455 71 355 71 q 589 113 530 71 l 633 44 z "},"Ď":{"ha":833,"x_min":159,"x_max":730,"o":"m 272 1213 l 387 1069 l 503 1213 l 607 1213 l 440 1000 l 340 1000 l 174 1213 l 272 1213 m 159 910 l 294 910 q 620 787 510 910 q 730 442 730 663 q 622 111 730 221 q 286 0 513 0 l 159 0 l 159 910 m 284 89 q 444 111 380 89 q 545 179 508 133 q 596 289 581 226 q 611 442 611 351 q 602 570 611 515 q 571 674 593 626 q 513 754 549 723 q 419 803 476 785 q 285 821 362 821 l 273 821 l 273 89 l 284 89 z "},"ď":{"ha":833,"x_min":102,"x_max":868,"o":"m 692 585 l 723 955 l 868 955 l 755 585 l 692 585 m 564 577 l 564 943 l 675 955 l 675 0 l 574 0 l 564 104 q 525 51 547 75 q 462 6 503 26 q 373 -15 421 -15 q 249 13 302 -15 q 164 90 196 41 q 118 202 133 140 q 102 340 102 265 q 119 475 102 414 q 167 586 135 537 q 252 662 199 635 q 373 690 304 690 q 496 659 448 690 q 564 577 544 627 m 564 339 q 561 424 564 387 q 545 496 557 460 q 514 554 534 531 q 463 590 495 576 q 386 604 430 604 q 312 589 344 604 q 262 548 281 573 q 233 487 244 524 q 218 413 222 450 q 214 332 214 377 q 386 71 214 71 q 564 339 564 71 z "},"Đ":{"ha":833,"x_min":55,"x_max":675,"o":"m 229 89 q 389 111 325 89 q 490 179 453 133 q 541 289 526 226 q 556 442 556 351 q 547 570 556 515 q 516 674 538 626 q 458 754 494 723 q 364 803 421 785 q 230 821 307 821 l 218 821 l 218 517 l 387 517 l 387 436 l 218 436 l 218 89 l 229 89 m 55 436 l 55 517 l 104 517 l 104 910 l 239 910 q 565 787 455 910 q 675 442 675 663 q 567 111 675 221 q 231 0 458 0 l 104 0 l 104 436 l 55 436 z "},"đ":{"ha":833,"x_min":74,"x_max":747,"o":"m 536 339 q 532 424 536 387 q 517 496 528 460 q 486 554 505 531 q 434 590 467 576 q 357 604 401 604 q 284 589 315 604 q 234 548 252 573 q 204 487 216 524 q 190 413 193 450 q 186 332 186 377 q 357 71 186 71 q 536 339 536 71 m 647 856 l 747 856 l 747 774 l 647 774 l 647 0 l 536 0 l 536 104 q 497 51 519 75 q 434 6 475 26 q 345 -15 393 -15 q 221 13 274 -15 q 136 90 168 41 q 89 202 104 140 q 74 340 74 265 q 90 475 74 414 q 138 586 106 537 q 223 662 170 635 q 345 690 276 690 q 468 659 420 690 q 536 577 515 627 l 536 774 l 315 774 l 315 856 l 536 856 l 536 943 l 647 955 l 647 856 z "},"Ę":{"ha":833,"x_min":179,"x_max":707,"o":"m 311 -148 q 325 -92 311 -117 q 363 -47 338 -66 q 408 -16 388 -27 q 457 9 428 -4 l 544 9 q 499 -18 517 -6 q 456 -49 481 -30 q 418 -88 431 -68 q 406 -128 406 -109 q 428 -171 406 -157 q 485 -185 451 -185 q 577 -164 521 -185 l 577 -238 q 477 -258 530 -258 q 311 -148 311 -258 m 294 418 l 294 89 l 707 89 l 698 0 l 179 0 l 179 910 l 686 910 l 677 821 l 294 821 l 294 515 l 656 515 l 656 418 l 294 418 z "},"ę":{"ha":833,"x_min":126,"x_max":663,"o":"m 300 -163 q 313 -107 300 -133 q 351 -62 326 -82 q 396 -31 376 -43 q 446 -6 416 -20 l 532 -6 q 487 -34 505 -22 q 445 -64 469 -45 q 407 -104 420 -83 q 394 -144 394 -124 q 417 -187 394 -173 q 473 -201 439 -201 q 566 -180 509 -201 l 566 -254 q 466 -273 518 -273 q 300 -163 300 -273 m 556 399 q 412 604 544 604 q 337 588 369 604 q 286 542 305 572 q 257 477 267 511 q 242 399 247 443 l 556 399 m 126 339 q 157 515 126 436 q 251 642 189 594 q 397 690 314 690 q 515 664 464 690 q 598 591 567 637 q 646 484 630 544 q 663 355 663 425 l 663 317 l 238 317 q 261 194 241 248 q 327 105 281 140 q 436 71 372 71 q 600 130 530 71 l 649 68 q 556 7 606 28 q 433 -15 505 -15 q 264 32 334 -15 q 160 158 194 79 q 126 339 126 237 z "},"Ě":{"ha":833,"x_min":174,"x_max":707,"o":"m 273 1213 l 387 1069 l 503 1213 l 608 1213 l 441 1000 l 340 1000 l 174 1213 l 273 1213 m 294 418 l 294 89 l 707 89 l 698 0 l 179 0 l 179 910 l 686 910 l 677 821 l 294 821 l 294 515 l 656 515 l 656 418 l 294 418 z "},"ě":{"ha":833,"x_min":126,"x_max":663,"o":"m 297 977 l 412 833 l 528 977 l 632 977 l 465 764 l 365 764 l 199 977 l 297 977 m 556 399 q 412 604 544 604 q 337 588 369 604 q 286 542 305 572 q 257 477 267 511 q 242 399 247 443 l 556 399 m 126 339 q 157 515 126 436 q 251 642 189 594 q 397 690 314 690 q 515 664 464 690 q 598 591 567 637 q 646 484 630 544 q 663 355 663 425 l 663 317 l 238 317 q 261 194 241 248 q 327 105 281 140 q 436 71 372 71 q 600 130 530 71 l 649 68 q 556 7 606 28 q 433 -15 505 -15 q 264 32 334 -15 q 160 158 194 79 q 126 339 126 237 z "},"Ğ":{"ha":833,"x_min":92,"x_max":703,"o":"m 321 1156 q 352 1090 330 1110 q 425 1070 374 1070 q 500 1091 475 1070 q 536 1156 525 1112 l 595 1156 q 551 1039 590 1077 q 430 1000 512 1000 q 308 1037 346 1000 q 262 1156 269 1074 l 321 1156 m 648 766 q 476 832 578 832 q 335 778 397 832 q 242 638 273 723 q 212 456 212 553 q 226 313 212 380 q 269 194 240 247 q 345 110 297 140 q 453 79 392 79 q 597 116 551 79 l 597 381 l 420 381 l 420 475 l 703 475 l 703 73 q 587 8 648 32 q 442 -15 526 -15 q 287 22 355 -15 q 177 125 219 60 q 114 275 136 191 q 92 458 92 359 q 122 650 92 562 q 204 798 153 738 q 323 891 255 858 q 468 925 392 925 q 592 907 541 925 q 688 850 644 889 l 648 766 z "},"ğ":{"ha":833,"x_min":96,"x_max":680,"o":"m 258 920 q 289 854 267 874 q 361 834 311 834 q 436 855 411 834 q 473 920 461 876 l 532 920 q 487 803 526 841 q 366 764 448 764 q 244 801 282 764 q 198 920 205 838 l 258 920 m 392 604 q 208 336 208 604 q 218 250 208 290 q 249 174 229 209 q 306 119 270 140 q 387 99 341 99 q 461 113 429 99 q 513 149 493 126 q 546 203 533 172 q 563 268 558 235 q 568 339 568 301 q 564 420 568 384 q 548 492 559 457 q 516 551 536 528 q 466 590 497 575 q 392 604 434 604 m 577 128 q 500 38 557 77 q 376 0 444 0 q 230 46 294 0 q 131 170 165 93 q 96 339 96 247 q 126 518 96 440 q 222 643 157 595 q 380 690 287 690 q 568 578 500 690 l 572 669 l 680 669 l 680 37 q 596 -216 680 -135 q 351 -298 513 -298 q 210 -288 256 -298 l 210 -205 q 342 -213 245 -213 q 409 -207 377 -213 q 472 -184 440 -201 q 526 -143 503 -168 q 563 -76 549 -117 q 577 18 577 -35 l 577 128 z "},"İ":{"ha":833,"x_min":160,"x_max":673,"o":"m 362 1107 l 470 1107 l 470 1000 l 362 1000 l 362 1107 m 160 821 l 160 910 l 673 910 l 673 821 l 471 821 l 471 89 l 673 89 l 673 0 l 160 0 l 160 89 l 357 89 l 357 821 l 160 821 z "},"ı":{"ha":833,"x_min":120,"x_max":723,"o":"m 162 582 l 162 669 l 481 669 l 481 88 l 723 88 l 723 0 l 120 0 l 120 88 l 370 88 l 370 582 l 162 582 z "},"ĸ":{"ha":833,"x_min":132,"x_max":735,"o":"m 243 361 l 558 669 l 711 669 l 351 332 l 735 0 l 587 0 l 242 304 l 242 0 l 132 0 l 132 670 l 243 670 l 243 361 z "},"Ĺ":{"ha":833,"x_min":220,"x_max":686,"o":"m 374 1000 l 534 1266 l 675 1266 l 461 1000 l 374 1000 m 334 89 l 686 89 l 680 0 l 220 0 l 220 910 l 334 910 l 334 89 z "},"ĺ":{"ha":833,"x_min":79,"x_max":629,"o":"m 191 1029 l 351 1296 l 492 1296 l 278 1029 l 191 1029 m 629 0 l 541 0 q 442 5 483 0 q 372 25 401 11 q 325 57 342 39 q 297 107 308 75 q 283 175 287 140 q 279 264 279 211 l 279 869 l 79 869 l 79 955 l 390 955 l 390 270 q 391 204 390 229 q 398 156 393 179 q 413 121 404 132 q 439 100 422 109 q 479 88 456 91 q 536 85 502 85 l 629 85 l 629 0 z "},"Ľ":{"ha":833,"x_min":220,"x_max":686,"o":"m 503 555 l 534 925 l 679 925 l 566 555 l 503 555 m 334 89 l 686 89 l 680 0 l 220 0 l 220 910 l 334 910 l 334 89 z "},"ľ":{"ha":833,"x_min":79,"x_max":751,"o":"m 574 585 l 606 955 l 751 955 l 637 585 l 574 585 m 629 0 l 541 0 q 442 5 483 0 q 372 25 401 11 q 325 57 342 39 q 297 107 308 75 q 283 175 287 140 q 279 264 279 211 l 279 869 l 79 869 l 79 955 l 390 955 l 390 270 q 391 204 390 229 q 398 156 393 179 q 413 121 404 132 q 439 100 422 109 q 479 88 456 91 q 536 85 502 85 l 629 85 l 629 0 z "},"Ł":{"ha":833,"x_min":7,"x_max":689,"o":"m 256 100 l 689 100 l 689 0 l 142 0 l 142 390 l 7 324 l 7 415 l 142 481 l 142 910 l 256 910 l 256 537 l 507 659 l 507 568 l 256 446 l 256 100 z "},"ł":{"ha":833,"x_min":76,"x_max":768,"o":"m 119 875 l 119 967 l 481 967 l 481 595 l 686 694 l 686 604 l 481 503 l 481 88 l 768 88 l 768 0 l 76 0 l 76 88 l 370 88 l 370 449 l 186 359 l 186 450 l 370 540 l 370 875 l 119 875 z "},"Ń":{"ha":833,"x_min":134,"x_max":700,"o":"m 373 1000 l 532 1266 l 674 1266 l 460 1000 l 373 1000 m 700 0 l 566 0 l 237 736 l 237 0 l 134 0 l 134 910 l 264 910 l 598 176 l 598 910 l 700 910 l 700 0 z "},"ń":{"ha":833,"x_min":149,"x_max":673,"o":"m 338 764 l 497 1031 l 639 1031 l 425 764 l 338 764 m 465 690 q 673 426 673 690 l 673 0 l 562 0 q 562 412 562 0 q 561 455 562 439 q 557 494 560 471 q 550 531 555 517 q 535 560 545 545 q 511 584 525 576 q 475 598 496 593 q 425 604 453 604 q 309 563 359 604 q 260 453 260 522 l 260 0 l 149 0 l 149 669 l 251 669 l 257 597 q 465 690 324 690 z "},"Ň":{"ha":833,"x_min":134,"x_max":700,"o":"m 298 1213 l 413 1069 l 529 1213 l 633 1213 l 467 1000 l 366 1000 l 200 1213 l 298 1213 m 700 0 l 566 0 l 237 736 l 237 0 l 134 0 l 134 910 l 264 910 l 598 176 l 598 910 l 700 910 l 700 0 z "},"ň":{"ha":833,"x_min":149,"x_max":673,"o":"m 263 977 l 378 833 l 494 977 l 598 977 l 431 764 l 331 764 l 165 977 l 263 977 m 465 690 q 673 426 673 690 l 673 0 l 562 0 q 562 412 562 0 q 561 455 562 439 q 557 494 560 471 q 550 531 555 517 q 535 560 545 545 q 511 584 525 576 q 475 598 496 593 q 425 604 453 604 q 309 563 359 604 q 260 453 260 522 l 260 0 l 149 0 l 149 669 l 251 669 l 257 597 q 465 690 324 690 z "},"Ŋ":{"ha":833,"x_min":79,"x_max":671,"o":"m 437 926 q 437 926 437 926 q 609 850 547 926 q 671 616 671 773 l 671 8 q 614 -210 671 -141 q 416 -279 557 -279 q 337 -275 389 -279 q 248 -267 286 -271 l 210 -262 l 204 -163 q 431 -182 361 -182 q 525 -142 492 -182 q 557 -24 557 -102 l 557 612 q 524 780 557 728 q 403 832 492 832 q 251 778 309 832 q 193 617 193 723 l 193 1 l 79 1 l 79 910 l 185 910 l 193 819 q 437 926 281 925 z "},"ŋ":{"ha":833,"x_min":119,"x_max":644,"o":"m 435 690 q 644 426 644 690 l 643 34 q 642 -29 643 -5 q 639 -83 642 -54 q 632 -132 637 -113 q 618 -171 627 -150 q 598 -205 610 -193 q 568 -230 585 -218 q 526 -249 550 -243 q 472 -259 503 -255 q 404 -263 441 -263 l 243 -263 l 243 -178 l 403 -178 q 460 -173 439 -178 q 497 -159 481 -169 q 519 -127 512 -149 q 529 -77 526 -105 q 532 0 532 -48 l 532 412 q 532 455 532 439 q 528 494 531 471 q 520 531 526 517 q 506 560 515 545 q 481 584 496 576 q 446 598 467 593 q 396 604 424 604 q 280 563 330 604 q 231 453 231 522 l 231 0 l 119 0 l 119 669 l 222 669 l 228 597 q 435 690 295 690 z "},"ō":{"ha":833,"x_min":126,"x_max":707,"o":"m 210 764 l 210 847 l 625 847 l 625 764 l 210 764 m 415 690 q 545 663 488 690 q 636 589 602 637 q 689 479 671 542 q 707 340 707 416 q 629 82 707 180 q 415 -15 550 -15 q 287 13 343 -15 q 196 88 231 40 q 144 199 161 136 q 126 336 126 262 q 204 593 126 496 q 415 690 281 690 m 239 336 q 243 258 239 294 q 261 186 248 221 q 293 126 273 151 q 343 86 312 101 q 415 71 375 71 q 489 86 456 71 q 541 126 521 101 q 573 186 561 151 q 591 259 586 222 q 596 338 596 296 q 591 416 596 380 q 573 488 586 453 q 541 549 561 524 q 489 589 521 574 q 415 604 456 604 q 329 581 365 604 q 274 518 293 558 q 247 433 256 478 q 239 336 239 389 z "},"Ő":{"ha":833,"x_min":117,"x_max":737,"o":"m 466 1000 l 621 1205 l 737 1205 l 546 1000 l 466 1000 m 287 1000 l 439 1205 l 555 1205 l 366 1000 l 287 1000 m 417 -15 q 307 10 357 -15 q 222 79 257 35 q 163 182 187 122 q 129 311 140 242 q 117 456 117 379 q 126 593 117 528 q 158 720 136 659 q 213 826 180 782 q 299 898 247 871 q 417 925 351 925 q 535 898 483 925 q 621 826 587 871 q 676 720 654 782 q 707 593 698 659 q 716 456 716 528 q 698 276 716 359 q 645 127 680 193 q 551 23 609 61 q 417 -15 492 -15 m 517 781 q 496 807 517 781 q 417 832 475 832 q 317 781 359 832 q 256 646 276 730 q 237 455 237 562 q 256 264 237 348 q 318 130 276 180 q 417 79 359 79 q 516 130 475 79 q 577 264 557 180 q 597 455 597 348 q 577 646 597 562 q 517 781 558 730 z "},"ő":{"ha":833,"x_min":126,"x_max":736,"o":"m 465 764 l 620 970 l 736 970 l 545 764 l 465 764 m 286 764 l 438 970 l 553 970 l 364 764 l 286 764 m 415 690 q 545 663 488 690 q 636 589 602 637 q 689 479 671 542 q 707 340 707 416 q 629 82 707 180 q 415 -15 550 -15 q 287 13 343 -15 q 196 88 231 40 q 144 199 161 136 q 126 336 126 262 q 204 593 126 496 q 415 690 281 690 m 239 336 q 243 258 239 294 q 261 186 248 221 q 293 126 273 151 q 343 86 312 101 q 415 71 375 71 q 489 86 456 71 q 541 126 521 101 q 573 186 561 151 q 591 259 586 222 q 596 338 596 296 q 591 416 596 380 q 573 488 586 453 q 541 549 561 524 q 489 589 521 574 q 415 604 456 604 q 329 581 365 604 q 274 518 293 558 q 247 433 256 478 q 239 336 239 389 z "},"Œ":{"ha":833,"x_min":63,"x_max":690,"o":"m 496 418 l 496 89 l 690 89 l 681 0 l 363 0 q 229 36 288 0 q 135 134 171 71 q 81 279 99 197 q 63 456 63 360 q 72 591 63 528 q 103 714 81 655 q 159 817 125 774 q 245 885 193 859 q 363 910 297 910 l 670 910 l 661 821 l 496 821 l 496 515 l 640 515 l 640 418 l 496 418 m 381 817 l 363 817 q 263 769 304 817 q 202 642 222 722 q 182 455 182 562 q 229 194 182 292 q 363 95 276 95 l 381 95 l 381 817 z "},"œ":{"ha":833,"x_min":43,"x_max":714,"o":"m 160 431 q 157 409 160 431 q 155 336 155 386 q 160 241 155 286 q 177 156 165 196 q 210 94 189 117 q 259 71 231 71 q 306 93 286 71 q 337 155 326 116 q 354 241 349 195 q 359 341 359 288 q 350 467 359 410 q 317 564 340 524 q 259 604 293 604 q 210 581 231 604 q 177 517 189 557 q 160 431 165 477 m 701 60 q 534 -15 633 -15 q 399 87 442 -15 q 256 -15 350 -15 q 139 33 189 -15 q 66 159 90 81 q 43 336 43 237 q 103 592 43 494 q 260 690 163 690 q 404 589 356 690 q 543 690 450 690 q 637 644 597 690 q 695 523 676 597 q 714 355 714 448 l 713 317 l 448 317 q 475 140 452 209 q 542 71 498 71 q 652 127 602 71 l 701 60 m 626 399 q 620 474 625 439 q 606 539 615 509 q 580 587 596 570 q 543 604 564 604 q 494 574 515 604 q 464 499 473 543 q 451 399 454 454 l 626 399 z "},"Ŕ":{"ha":833,"x_min":145,"x_max":745,"o":"m 265 1000 l 425 1266 l 566 1266 l 352 1000 l 265 1000 m 723 667 q 653 855 723 800 q 418 910 583 910 l 145 910 l 145 0 l 260 0 l 260 425 l 479 427 l 625 0 l 745 0 l 584 452 q 685 526 648 476 q 723 667 723 575 m 446 510 l 260 510 l 260 821 l 416 821 q 571 789 530 821 q 612 670 612 757 q 570 545 612 579 q 446 510 528 510 z "},"ŕ":{"ha":833,"x_min":220,"x_max":682,"o":"m 380 764 l 540 1031 l 682 1031 l 467 764 l 380 764 m 332 0 l 220 0 l 220 669 l 311 669 l 320 546 q 428 653 361 616 q 578 690 494 690 l 628 690 l 628 587 l 563 587 q 394 533 456 587 q 332 372 332 480 l 332 0 z "},"Ř":{"ha":833,"x_min":145,"x_max":745,"o":"m 298 1213 l 412 1069 l 528 1213 l 633 1213 l 466 1000 l 366 1000 l 199 1213 l 298 1213 m 723 667 q 653 855 723 800 q 418 910 583 910 l 145 910 l 145 0 l 260 0 l 260 425 l 479 427 l 625 0 l 745 0 l 584 452 q 685 526 648 476 q 723 667 723 575 m 446 510 l 260 510 l 260 821 l 416 821 q 571 789 530 821 q 612 670 612 757 q 570 545 612 579 q 446 510 528 510 z "},"ř":{"ha":833,"x_min":208,"x_max":641,"o":"m 306 977 l 420 833 l 536 977 l 641 977 l 474 764 l 374 764 l 208 977 l 306 977 m 332 0 l 220 0 l 220 669 l 311 669 l 320 546 q 428 653 361 616 q 578 690 494 690 l 628 690 l 628 587 l 563 587 q 394 533 456 587 q 332 372 332 480 l 332 0 z "},"Ś":{"ha":833,"x_min":136,"x_max":698,"o":"m 341 1000 l 500 1267 l 642 1267 l 428 1000 l 341 1000 m 195 152 q 295 99 245 119 q 408 79 345 79 q 526 123 482 79 q 569 243 569 168 q 564 285 569 266 q 552 319 559 304 q 531 346 545 333 q 505 368 517 359 q 472 388 492 377 q 437 404 451 398 q 397 421 422 410 q 357 438 372 431 q 305 463 325 453 q 257 490 285 473 q 212 524 229 507 q 178 565 195 541 q 154 619 161 589 q 146 686 146 650 q 225 862 146 799 q 427 926 304 926 q 667 852 573 926 l 612 778 q 531 817 579 802 q 433 833 483 833 q 315 796 359 833 q 272 688 272 759 q 277 650 272 667 q 295 617 283 632 q 320 592 308 603 q 355 570 333 581 q 394 550 377 558 q 439 530 411 543 q 485 509 467 517 q 530 486 513 495 q 572 462 547 477 q 612 434 597 447 q 646 401 628 420 q 674 360 664 381 q 691 312 684 340 q 698 254 698 285 q 622 54 698 122 q 414 -15 546 -15 q 136 69 262 -15 l 195 152 z "},"ś":{"ha":833,"x_min":169,"x_max":644,"o":"m 336 764 l 495 1031 l 637 1031 l 422 764 l 336 764 m 644 180 q 577 37 644 89 q 409 -15 510 -15 q 269 3 337 -15 q 169 45 201 21 l 215 119 q 395 71 292 71 q 504 101 462 71 q 545 184 545 132 q 525 247 545 221 q 447 286 504 272 l 334 315 q 205 383 239 338 q 171 498 171 428 q 232 633 171 576 q 399 690 292 690 q 606 644 522 690 l 569 572 q 402 609 479 609 q 309 581 345 608 q 272 503 272 553 q 290 445 272 468 q 360 409 309 422 l 477 380 q 603 311 561 359 q 644 180 644 263 z "},"Ş":{"ha":833,"x_min":136,"x_max":698,"o":"m 359 -224 q 437 -177 437 -224 q 362 -130 437 -130 q 317 -132 349 -130 l 338 -6 l 404 -6 l 391 -77 l 397 -77 q 495 -100 458 -77 q 532 -176 532 -124 q 367 -279 532 -279 q 252 -264 320 -279 l 257 -209 q 359 -224 322 -224 m 195 152 q 295 99 245 119 q 408 79 345 79 q 526 123 482 79 q 569 243 569 168 q 564 285 569 266 q 552 319 559 304 q 531 346 545 333 q 505 368 517 359 q 472 388 492 377 q 437 404 451 398 q 397 421 422 410 q 357 438 372 431 q 305 463 325 453 q 257 490 285 473 q 212 524 229 507 q 178 565 195 541 q 154 619 161 589 q 146 686 146 650 q 225 862 146 799 q 427 926 304 926 q 667 852 573 926 l 612 778 q 531 817 579 802 q 433 833 483 833 q 315 796 359 833 q 272 688 272 759 q 277 650 272 667 q 295 617 283 632 q 320 592 308 603 q 355 570 333 581 q 394 550 377 558 q 439 530 411 543 q 485 509 467 517 q 530 486 513 495 q 572 462 547 477 q 612 434 597 447 q 646 401 628 420 q 674 360 664 381 q 691 312 684 340 q 698 254 698 285 q 622 54 698 122 q 414 -15 546 -15 q 136 69 262 -15 l 195 152 z "},"ş":{"ha":833,"x_min":169,"x_max":644,"o":"m 380 -224 q 458 -177 458 -224 q 383 -130 458 -130 q 338 -132 370 -130 l 359 -6 l 425 -6 l 412 -77 l 418 -77 q 516 -100 479 -77 q 553 -176 553 -124 q 388 -279 553 -279 q 273 -264 341 -279 l 278 -209 q 380 -224 343 -224 m 644 180 q 577 37 644 89 q 409 -15 510 -15 q 269 3 337 -15 q 169 45 201 21 l 215 119 q 395 71 292 71 q 504 101 462 71 q 545 184 545 132 q 525 247 545 221 q 447 286 504 272 l 334 315 q 205 383 239 338 q 171 498 171 428 q 232 633 171 576 q 399 690 292 690 q 606 644 522 690 l 569 572 q 402 609 479 609 q 309 581 345 608 q 272 503 272 553 q 290 445 272 468 q 360 409 309 422 l 477 380 q 603 311 561 359 q 644 180 644 263 z "},"Š":{"ha":833,"x_min":136,"x_max":698,"o":"m 267 1213 l 381 1069 l 497 1213 l 602 1213 l 435 1000 l 334 1000 l 168 1213 l 267 1213 m 195 152 q 295 99 245 119 q 408 79 345 79 q 526 123 482 79 q 569 243 569 168 q 564 285 569 266 q 552 319 559 304 q 531 346 545 333 q 505 368 517 359 q 472 388 492 377 q 437 404 451 398 q 397 421 422 410 q 357 438 372 431 q 305 463 325 453 q 257 490 285 473 q 212 524 229 507 q 178 565 195 541 q 154 619 161 589 q 146 686 146 650 q 225 862 146 799 q 427 926 304 926 q 667 852 573 926 l 612 778 q 531 817 579 802 q 433 833 483 833 q 315 796 359 833 q 272 688 272 759 q 277 650 272 667 q 295 617 283 632 q 320 592 308 603 q 355 570 333 581 q 394 550 377 558 q 439 530 411 543 q 485 509 467 517 q 530 486 513 495 q 572 462 547 477 q 612 434 597 447 q 646 401 628 420 q 674 360 664 381 q 691 312 684 340 q 698 254 698 285 q 622 54 698 122 q 414 -15 546 -15 q 136 69 262 -15 l 195 152 z "},"š":{"ha":833,"x_min":162,"x_max":644,"o":"m 260 977 l 375 833 l 491 977 l 595 977 l 429 764 l 328 764 l 162 977 l 260 977 m 644 180 q 577 37 644 89 q 409 -15 510 -15 q 269 3 337 -15 q 169 45 201 21 l 215 119 q 395 71 292 71 q 504 101 462 71 q 545 184 545 132 q 525 247 545 221 q 447 286 504 272 l 334 315 q 205 383 239 338 q 171 498 171 428 q 232 633 171 576 q 399 690 292 690 q 606 644 522 690 l 569 572 q 402 609 479 609 q 309 581 345 608 q 272 503 272 553 q 290 445 272 468 q 360 409 309 422 l 477 380 q 603 311 561 359 q 644 180 644 263 z "},"Ţ":{"ha":833,"x_min":101,"x_max":732,"o":"m 405 -210 q 482 -162 482 -210 q 408 -115 482 -115 q 362 -117 395 -115 l 383 9 l 449 9 l 437 -62 l 442 -62 q 541 -85 503 -62 q 578 -161 578 -109 q 412 -264 578 -264 q 297 -250 366 -264 l 302 -194 q 405 -210 368 -210 m 732 910 l 732 821 l 473 821 l 473 0 l 359 0 l 359 821 l 101 821 l 101 910 l 732 910 z "},"ţ":{"ha":833,"x_min":59,"x_max":629,"o":"m 454 -217 q 532 -170 532 -217 q 457 -122 532 -122 q 412 -125 444 -122 l 433 1 l 498 1 l 486 -70 l 492 -69 q 590 -93 553 -69 q 627 -169 627 -117 q 462 -271 627 -271 q 347 -257 415 -271 l 352 -201 q 454 -217 417 -217 m 359 584 l 359 270 q 382 125 359 165 q 475 84 404 86 l 629 84 l 629 -2 l 460 -2 q 370 10 408 -2 q 309 45 332 22 q 272 105 285 67 q 253 188 258 143 q 248 298 248 233 l 248 584 l 59 584 l 71 669 l 248 669 l 248 901 l 359 933 l 359 669 l 629 669 l 629 584 l 359 584 z "},"Ť":{"ha":833,"x_min":101,"x_max":732,"o":"m 298 1213 l 413 1069 l 529 1213 l 633 1213 l 467 1000 l 366 1000 l 200 1213 l 298 1213 m 732 910 l 732 821 l 473 821 l 473 0 l 359 0 l 359 821 l 101 821 l 101 910 l 732 910 z "},"ť":{"ha":833,"x_min":59,"x_max":708,"o":"m 532 788 l 563 1158 l 708 1158 l 595 788 l 532 788 m 359 584 l 359 270 q 382 125 359 165 q 475 84 404 86 l 629 84 l 629 -2 l 460 -2 q 370 10 408 -2 q 309 45 332 22 q 272 105 285 67 q 253 188 258 143 q 248 298 248 233 l 248 584 l 59 584 l 71 669 l 248 669 l 248 901 l 359 933 l 359 669 l 629 669 l 629 584 l 359 584 z "},"Ů":{"ha":833,"x_min":121,"x_max":713,"o":"m 425 1196 q 365 1178 389 1196 q 342 1126 342 1160 q 360 1077 342 1098 q 407 1057 379 1057 q 468 1075 444 1057 q 492 1127 492 1093 q 472 1175 492 1155 q 425 1196 452 1196 m 559 1127 q 517 1036 559 1072 q 418 1000 475 1000 q 317 1035 359 1000 q 275 1127 275 1071 q 316 1218 275 1183 q 418 1253 358 1253 q 517 1218 476 1253 q 559 1127 559 1183 m 643 59 q 608 22 643 59 q 417 -15 574 -15 q 191 59 260 -15 q 121 296 121 132 l 121 910 l 235 910 l 235 299 q 273 132 235 184 q 417 79 312 79 q 561 132 522 79 q 599 299 599 184 l 599 910 l 713 910 l 713 296 q 643 59 713 132 z "},"ů":{"ha":833,"x_min":151,"x_max":683,"o":"m 418 960 q 359 942 382 960 q 336 890 336 924 q 354 841 336 862 q 401 821 373 821 q 462 839 437 821 q 486 891 486 857 q 466 939 486 919 q 418 960 446 960 m 553 891 q 511 800 553 836 q 412 764 469 764 q 311 799 353 764 q 269 891 269 835 q 310 982 269 947 q 412 1017 352 1017 q 511 982 470 1017 q 553 891 553 947 m 683 298 l 683 670 l 572 670 l 572 295 q 571 243 572 262 q 567 198 570 224 q 558 155 564 171 q 542 121 553 139 q 515 93 531 103 q 475 77 499 83 q 421 71 452 71 q 363 77 389 71 q 321 93 338 83 q 293 121 304 103 q 275 155 281 139 q 266 198 269 171 q 262 243 263 224 q 262 295 262 262 l 262 670 l 151 670 l 151 298 q 212 58 151 132 q 421 -15 274 -15 q 623 59 564 -15 q 683 298 683 132 z "},"Ű":{"ha":833,"x_min":121,"x_max":737,"o":"m 466 1000 l 621 1205 l 737 1205 l 546 1000 l 466 1000 m 287 1000 l 439 1205 l 555 1205 l 366 1000 l 287 1000 m 643 59 q 608 22 643 59 q 417 -15 574 -15 q 191 59 260 -15 q 121 296 121 132 l 121 910 l 235 910 l 235 299 q 273 132 235 184 q 417 79 312 79 q 561 132 522 79 q 599 299 599 184 l 599 910 l 713 910 l 713 296 q 643 59 713 132 z "},"ű":{"ha":833,"x_min":151,"x_max":731,"o":"m 460 764 l 615 970 l 731 970 l 540 764 l 460 764 m 281 764 l 433 970 l 549 970 l 359 764 l 281 764 m 683 298 l 683 670 l 572 670 l 572 295 q 571 243 572 262 q 567 198 570 224 q 558 155 564 171 q 542 121 553 139 q 515 93 531 103 q 475 77 499 83 q 421 71 452 71 q 363 77 389 71 q 321 93 338 83 q 293 121 304 103 q 275 155 281 139 q 266 198 269 171 q 262 243 263 224 q 262 295 262 262 l 262 670 l 151 670 l 151 298 q 212 58 151 132 q 421 -15 274 -15 q 623 59 564 -15 q 683 298 683 132 z "},"Ÿ":{"ha":833,"x_min":83,"x_max":750,"o":"m 229 1112 l 341 1112 l 341 1000 l 229 1000 l 229 1112 m 494 1000 l 494 1112 l 605 1112 l 605 1000 l 494 1000 m 471 0 l 357 0 l 357 362 l 84 910 l 210 910 l 414 473 l 621 910 l 750 910 l 471 362 l 471 0 z "},"Ź":{"ha":833,"x_min":156,"x_max":682,"o":"m 338 1000 l 497 1266 l 639 1266 l 425 1000 l 338 1000 m 291 89 l 677 89 l 677 0 l 156 0 l 156 87 l 539 821 l 178 821 l 178 910 l 682 910 l 682 833 l 291 89 z "},"ź":{"ha":833,"x_min":176,"x_max":641,"o":"m 327 764 l 486 1031 l 628 1031 l 414 764 l 327 764 m 188 669 l 619 669 l 619 585 l 293 85 l 641 84 l 641 0 l 176 0 l 176 87 l 496 584 l 188 584 l 188 669 z "},"Ż":{"ha":833,"x_min":156,"x_max":682,"o":"m 316 1107 l 424 1107 l 424 1000 l 316 1000 l 316 1107 m 291 89 l 677 89 l 677 0 l 156 0 l 156 87 l 539 821 l 178 821 l 178 910 l 682 910 l 682 833 l 291 89 z "},"ż":{"ha":833,"x_min":176,"x_max":641,"o":"m 321 872 l 429 872 l 429 764 l 321 764 l 321 872 m 188 669 l 619 669 l 619 585 l 293 85 l 641 84 l 641 0 l 176 0 l 176 87 l 496 584 l 188 584 l 188 669 z "},"ƒ":{"ha":833,"x_min":132,"x_max":762,"o":"m 755 843 q 686 857 719 857 q 638 851 659 857 q 603 830 617 844 q 581 802 589 816 q 565 763 572 787 q 556 721 559 739 q 549 673 553 703 q 541 625 545 642 l 676 625 l 670 532 l 526 532 l 440 79 q 427 19 433 45 q 411 -40 421 -7 q 389 -97 400 -73 q 360 -145 378 -120 q 323 -185 343 -170 q 276 -210 303 -200 q 217 -220 249 -220 q 132 -210 167 -220 l 139 -119 q 193 -128 163 -128 q 240 -116 220 -128 q 272 -82 260 -104 q 292 -38 285 -59 q 307 12 299 -18 q 310 22 309 19 q 346 177 330 93 q 381 371 363 262 q 410 532 400 479 l 305 532 l 312 625 l 427 625 q 463 809 444 756 q 581 939 497 911 q 665 951 618 951 q 762 939 713 951 l 755 843 z "},"ȷ":{"ha":833,"x_min":121,"x_max":521,"o":"m 281 -134 q 338 -130 317 -134 q 375 -116 359 -125 q 397 -84 390 -106 q 407 -33 404 -62 q 410 43 410 -5 l 410 584 l 171 584 l 171 669 l 521 669 l 521 77 q 520 14 521 39 q 517 -40 519 -10 q 510 -88 515 -70 q 496 -128 505 -106 q 476 -162 488 -149 q 446 -187 463 -174 q 404 -205 428 -199 q 350 -216 380 -212 q 281 -220 319 -220 l 121 -220 l 121 -134 l 281 -134 z "},"ˆ":{"ha":833,"x_min":173,"x_max":591,"o":"m 433 986 l 591 772 l 503 772 l 379 916 l 256 772 l 173 772 l 331 986 l 433 986 z "},"ˇ":{"ha":833,"x_min":173,"x_max":606,"o":"m 271 985 l 386 842 l 502 985 l 606 985 l 439 772 l 339 772 l 173 985 l 271 985 z "},"˘":{"ha":833,"x_min":216,"x_max":549,"o":"m 275 964 q 306 898 284 918 q 378 878 328 878 q 454 899 429 878 q 490 964 479 920 l 549 964 q 505 846 544 884 q 384 808 466 808 q 261 845 300 808 q 216 964 223 882 l 275 964 z "},"˙":{"ha":833,"x_min":310,"x_max":418,"o":"m 310 933 l 418 933 l 418 825 l 310 825 l 310 933 z "},"˚":{"ha":833,"x_min":236,"x_max":520,"o":"m 386 957 q 327 939 350 957 q 303 888 303 921 q 322 839 303 859 q 368 818 340 818 q 429 836 405 818 q 454 888 454 854 q 434 937 454 916 q 386 957 414 957 m 520 888 q 478 797 520 833 q 380 761 437 761 q 278 797 320 761 q 236 888 236 832 q 278 979 236 945 q 379 1014 319 1014 q 479 979 437 1014 q 520 888 520 944 z "},"˛":{"ha":833,"x_min":253,"x_max":519,"o":"m 253 -149 q 266 -93 253 -119 q 304 -48 279 -68 q 350 -17 330 -28 q 399 8 370 -5 l 486 8 q 440 -19 458 -7 q 398 -50 422 -31 q 360 -90 373 -69 q 347 -130 347 -110 q 370 -173 347 -159 q 427 -186 393 -186 q 519 -165 463 -186 l 519 -239 q 419 -259 471 -259 q 253 -149 253 -259 z "},"˜":{"ha":833,"x_min":155,"x_max":633,"o":"m 633 937 q 595 828 629 870 q 497 787 562 787 q 441 798 468 787 q 395 822 414 808 q 350 846 377 836 q 295 857 323 857 q 239 795 241 857 l 155 795 q 193 905 157 865 q 298 945 230 945 q 354 933 327 945 q 399 909 381 922 q 444 885 417 896 q 499 873 471 873 q 549 937 543 873 l 633 937 z "},"˝":{"ha":833,"x_min":150,"x_max":600,"o":"m 329 775 l 484 981 l 600 981 l 409 775 l 329 775 m 150 775 l 302 981 l 418 981 l 229 775 l 150 775 z "},"‘":{"ha":833,"x_min":272,"x_max":465,"o":"m 272 677 l 376 969 l 465 969 l 395 677 l 272 677 z "},"’":{"ha":833,"x_min":272,"x_max":465,"o":"m 465 969 l 361 677 l 272 677 l 344 969 l 465 969 z "},"‚":{"ha":833,"x_min":279,"x_max":472,"o":"m 472 133 l 369 -157 l 279 -157 l 351 133 l 472 133 z "},"“":{"ha":833,"x_min":142,"x_max":572,"o":"m 378 677 l 482 969 l 572 969 l 502 677 l 378 677 m 142 677 l 247 969 l 336 969 l 266 677 l 142 677 z "},"”":{"ha":833,"x_min":142,"x_max":557,"o":"m 336 969 l 232 677 l 142 677 l 213 969 l 336 969 m 557 969 l 453 677 l 363 677 l 435 969 l 557 969 z "},"„":{"ha":833,"x_min":149,"x_max":585,"o":"m 342 133 l 239 -157 l 149 -157 l 220 133 l 342 133 m 585 133 l 480 -157 l 391 -157 l 461 133 l 585 133 z "},"†":{"ha":833,"x_min":146,"x_max":695,"o":"m 146 619 l 146 707 l 367 707 l 367 962 l 463 962 l 463 707 l 695 707 l 695 619 l 454 619 l 454 75 l 367 75 l 367 619 l 146 619 z "},"‡":{"ha":833,"x_min":98,"x_max":652,"o":"m 103 651 l 103 739 l 326 739 l 326 962 l 422 962 l 422 739 l 652 739 l 652 651 l 422 651 l 422 372 l 647 372 l 647 288 l 422 288 l 422 75 l 326 75 l 326 288 l 98 288 l 98 372 l 326 372 l 326 651 l 103 651 z "},"•":{"ha":833,"x_min":147,"x_max":603,"o":"m 603 464 q 536 314 603 372 q 373 255 469 255 q 211 317 275 255 q 147 460 147 380 q 170 551 147 509 q 228 617 193 592 q 302 655 262 642 q 378 669 341 669 q 539 606 476 669 q 603 464 603 543 z "},"…":{"ha":833,"x_min":47,"x_max":703,"o":"m 47 -7 l 47 132 l 194 132 l 194 -7 l 47 -7 m 557 -7 l 557 132 l 703 132 l 703 -7 l 557 -7 m 301 -7 l 301 132 l 448 132 l 448 -7 l 301 -7 z "},"‹":{"ha":833,"x_min":245,"x_max":538,"o":"m 538 606 l 359 359 l 532 113 l 426 113 l 245 359 l 430 606 l 538 606 z "},"›":{"ha":833,"x_min":245,"x_max":538,"o":"m 245 113 l 422 359 l 250 606 l 355 606 l 538 359 l 351 113 l 245 113 z "},"⁄":{"ha":833,"x_min":104,"x_max":646,"o":"m 533 1075 l 646 1075 l 214 -29 l 104 -29 l 533 1075 z "},"€":{"ha":833,"x_min":45,"x_max":705,"o":"m 130 433 q 128 480 128 456 q 130 519 128 494 l 45 519 l 61 611 l 142 611 q 170 716 153 669 q 213 806 186 764 q 274 876 239 848 q 357 921 309 905 q 465 937 406 937 q 705 882 576 937 l 681 788 q 473 848 566 848 q 398 835 431 848 q 344 802 366 822 q 306 748 323 781 q 280 685 289 715 q 261 611 271 654 l 625 611 l 610 519 l 249 519 q 248 479 248 494 q 250 433 248 454 l 601 433 l 589 342 l 259 342 q 339 148 276 218 q 500 77 401 77 q 690 132 587 77 l 690 39 q 489 -12 584 -12 q 255 86 350 -12 q 138 342 160 185 l 47 342 l 61 433 l 130 433 z "},"™":{"ha":833,"x_min":54,"x_max":682,"o":"m 514 703 l 589 962 l 682 962 l 682 454 l 606 454 l 606 819 l 544 620 l 490 620 l 423 818 l 423 454 l 347 454 l 347 962 l 436 962 l 514 703 m 302 895 l 217 895 l 217 454 l 135 454 l 135 895 l 54 895 l 54 962 l 302 962 l 302 895 z "},"↑":{"ha":833,"x_min":203,"x_max":547,"o":"m 547 469 l 474 469 l 418 635 l 418 43 l 332 43 l 332 639 l 275 469 l 203 469 l 336 863 l 414 863 l 547 469 z "},"↓":{"ha":833,"x_min":203,"x_max":547,"o":"m 203 437 l 276 437 l 332 271 l 332 863 l 418 863 l 418 267 l 475 437 l 547 437 l 414 43 l 336 43 l 203 437 z "},"−":{"ha":833,"x_min":93,"x_max":657,"o":"m 657 328 l 93 328 l 93 419 l 657 419 l 657 328 z "},"␣":{"ha":833,"x_min":100,"x_max":650,"o":"m 650 0 l 100 0 q 100 342 100 0 l 197 342 l 197 88 l 553 88 l 553 342 l 650 342 q 650 0 650 342 z "}}}
